<?xml version="1.0" encoding="utf-8"?>
<!-- Generator: Adobe Illustrator 23.0.3, SVG Export Plug-In . SVG Version: 6.00 Build 0)  -->
<svg version="1.1" id="Слой_1" xmlns="http://www.w3.org/2000/svg" xmlns:xlink="http://www.w3.org/1999/xlink" x="0px" y="0px"
	 viewBox="0 0 658.7 466.3" style="enable-background:new 0 0 658.7 466.3;" xml:space="preserve">
<style type="text/css">
	.st0{fill:#49AEF0;}
	.st1{fill:#A1D4FF;}
	.st2{fill:#FFFFFF;}
	.st3{font-family:'MyriadPro-Bold';}
	.st4{font-size:14px;}
	.st5{fill:url(#SVGID_1_);}
	.st6{fill:#D9E8FF;}
	.st7{fill:#78C2FF;}
	.st8{fill:#609A3E;}
	.st9{fill:url(#SVGID_2_);}
	.st10{fill:url(#SVGID_3_);}
	.st11{fill:url(#SVGID_4_);}
	.st12{fill:#4659C3;}
	.st13{fill:#A1A1A1;}
	.st14{fill:#BFE2FF;}
	.st15{fill:#EB4747;}
	.st16{fill:#F9F9F9;}
	.st17{font-size:7px;}
	.st18{fill:#EEA886;}
	.st19{fill:#CF8C6C;}
	.st20{fill:#23344A;}
	.st21{fill:#6EA2E8;}
	.st22{fill:#3F74A0;}
	.st23{fill:#5B83C2;}
	.st24{fill:#AD3434;}
	.st25{fill:#B06E2A;}
	.st26{fill:#DB9C7C;}
	.st27{fill:#223247;}
	.st28{fill:#FAA146;}
	.st29{fill:#4A7FC4;}
	.st30{fill:#EDDAD3;}
	.st31{fill:#A77860;}
	.st32{fill:#FF4D4D;}
	.st33{fill:#252E3B;}
	.st34{fill:#38D2E0;}
	.st35{fill:#C73C3C;}
	.st36{fill:#E69440;}
	.st37{fill:#FF8080;}
	.st38{fill:#424773;}
	.st39{fill:#292C47;}
	.st40{fill:#754836;}
	.st41{fill:#E2D2CA;}
	.st42{fill:#162D40;}
	.st43{fill:#32658F;}
	.st44{fill:#1D3B54;}
	.st45{fill:#323657;}
	.st46{fill:#1E3D57;}
</style>
<g>
	<g>
		<g>
			<path class="st0" d="M203.5,153.2l0-0.5c0.1,0,7.8-0.6,10.4-7.6c0.6-1.7,1-3.4,1.3-5.2c1.2-6.2,2.5-12.5,14.5-16.8
				c7.6-2.8,13.3-2.3,17.9-1.9c7,0.6,11.6,1,17.5-10.7l0.4,0.2c-6,12-10.8,11.6-18,11c-4.5-0.4-10.1-0.8-17.7,1.9
				c-11.7,4.2-13,10.5-14.1,16.5c-0.4,1.9-0.7,3.6-1.4,5.3C211.6,152.6,203.6,153.2,203.5,153.2z"/>
		</g>
		<g>
			<g>
				<g>
					<path class="st1" d="M148.1,151.5h-29v-29h29V151.5z M120.1,150.5h27.1v-27.1h-27.1V150.5z"/>
				</g>
				<g>
					<path class="st1" d="M220.4,133.1h-66.5V126h66.5V133.1z M154.9,132.1h64.6V127h-64.6V132.1z"/>
				</g>
				<g>
					<path class="st1" d="M220.4,166.1H119.1V159h101.3V166.1z M120.1,165.2h99.4V160h-99.4V165.2z"/>
				</g>
				<g>
					<path class="st1" d="M183.6,179.8h-64.6v-7.1h64.6V179.8z M120.1,178.8h62.6v-5.2h-62.6V178.8z"/>
				</g>
				<g>
					<path class="st1" d="M199,146.7h-45v-7.1h45V146.7z M154.9,145.7H198v-5.2h-43.1V145.7z"/>
				</g>
			</g>
			<g>
				<path class="st1" d="M232,195.2H107.5V107H232V195.2z M108.5,194.2H231V108H108.5V194.2z"/>
			</g>
		</g>
		<g>
			<path class="st1" d="M213.6,237.1h-31.3v-31.3h31.3V237.1z M183.2,236.1h29.4v-29.4h-29.4V236.1z"/>
		</g>
		<g>
			<g>
				<rect x="197.4" y="213.8" class="st1" width="1" height="15.1"/>
			</g>
			<g>
				<rect x="190.3" y="220.9" class="st1" width="15.1" height="1"/>
			</g>
		</g>
		<g>
			<path class="st0" d="M201.4,152.4l-13.5-0.3c-0.8,0-1.5,0.2-2.1,0.7l-36.6,27.7c-1.5,1.1-1.8,3.3-0.7,4.8l10.1,13.4
				c1.1,1.5,3.3,1.8,4.8,0.7l36.6-27.7c0.6-0.5,1.1-1.1,1.2-1.9l3.4-13C205.2,154.5,203.6,152.5,201.4,152.4z M202.3,157.3
				c-0.8,0.6-1.9,0.4-2.5-0.4c-0.6-0.8-0.4-1.9,0.4-2.5c0.8-0.6,1.9-0.4,2.5,0.4C203.3,155.6,203.1,156.7,202.3,157.3z"/>
			<text transform="matrix(0.798 -0.6027 0.6027 0.798 163.0011 191.0688)" class="st2 st3 st4">Venda</text>
		</g>
		<linearGradient id="SVGID_1_" gradientUnits="userSpaceOnUse" x1="621.3928" y1="299.5836" x2="541.9653" y2="299.5836">
			<stop  offset="0" style="stop-color:#D5E4FF"/>
			<stop  offset="1" style="stop-color:#EDFFFE"/>
		</linearGradient>
		<rect x="414.7" y="267.9" class="st5" width="165.5" height="63.4"/>
		<rect x="414.7" y="267.9" class="st6" width="165.5" height="11.1"/>
		<rect x="408" y="155.6" class="st7" width="97.3" height="5.4"/>
		<rect x="408" y="135.2" class="st7" width="97.3" height="5.4"/>
		<g>
			<path class="st8" d="M469.9,243.3c-19.8,3.9-39.3,16.4-42.6,18.6c-0.3,0.2-0.5,0.3-0.5,0.3s-0.2-0.3-0.6-0.7
				c-1.9-2.5-7.8-11.5-6.2-25.5c1.9-16.7,11.2-23.1,42.8-26.6c23-2.6,23.3-27.5,23.3-27.9C503.5,215.2,487,239.9,469.9,243.3z"/>
			<g>
				
					<linearGradient id="SVGID_2_" gradientUnits="userSpaceOnUse" x1="3200.7358" y1="-3614.3149" x2="3227.7268" y2="-3614.3149" gradientTransform="matrix(0.8603 0.5098 -0.5098 0.8603 -4159.7788 1709.7283)">
					<stop  offset="5.181350e-03" style="stop-color:#3C6127"/>
					<stop  offset="1" style="stop-color:#639C38"/>
				</linearGradient>
				<path class="st9" d="M435.4,238c-9.6,8.3-8.3,22-8,23.9c-0.3,0.2-0.5,0.3-0.5,0.3s-0.2-0.3-0.6-0.7c-0.3-3.3-0.9-16.2,8.4-24.3
					c5.6-4.8,14.7-7.9,22.8-10.5c7.4-2.4,14.4-4.7,16.9-7.9l0.8,0.6c-2.8,3.4-9.5,5.6-17.4,8.2C449.8,230.3,440.8,233.3,435.4,238z"
					/>
			</g>
		</g>
		<g>
			<path class="st8" d="M441,225.1c-5.6,5.1-11.2,8.8-14.7,7.5c-0.2-0.1-0.4-0.2-0.6-0.3c-2.1-1.2-3.2-4.6-2.8-10.9
				c1.1-17,11.1-21,20.2-27.3c8.9-6.2,3.9-16.2,3.7-16.4C463.2,199.3,450.5,216.4,441,225.1z"/>
			<g>
				
					<linearGradient id="SVGID_3_" gradientUnits="userSpaceOnUse" x1="3191.978" y1="-3603.4194" x2="3191.978" y2="-3637.676" gradientTransform="matrix(0.8603 0.5098 -0.5098 0.8603 -4159.7788 1709.7283)">
					<stop  offset="5.181350e-03" style="stop-color:#3C6127"/>
					<stop  offset="1" style="stop-color:#639C38"/>
				</linearGradient>
				<path class="st10" d="M426.3,232.6c-0.2-0.1-0.4-0.2-0.6-0.3c0.8-3.4,2.7-10,5.9-13.8c1.5-1.8,3.4-3.5,5.3-5.3
					c3.7-3.4,7.4-7,9.7-11.7l0.6,0.3c-2.3,4.9-6.1,8.5-9.8,11.9c-1.9,1.8-3.7,3.5-5.2,5.3C428.9,222.6,427,229.3,426.3,232.6z"/>
			</g>
		</g>
		<g>
			<linearGradient id="SVGID_4_" gradientUnits="userSpaceOnUse" x1="218.4488" y1="221.1697" x2="264.9267" y2="221.1697">
				<stop  offset="0" style="stop-color:#C2C2C2"/>
				<stop  offset="1" style="stop-color:#DEDEDE"/>
			</linearGradient>
			<path class="st11" d="M267.1,331.4H421c5.5,0,10-4.5,10-10V121c0-5.5-4.5-10-10-10H267.1c-5.5,0-10,4.5-10,10v200.4
				C257,326.9,261.5,331.4,267.1,331.4z"/>
		</g>
		<rect x="267.1" y="97.3" class="st2" width="153.9" height="212.5"/>
		<path class="st0" d="M267.1,91.2v20.7c0,0,4.1,5.8,9.1,0h9.1c0,0,4.1,5.8,9.1,0h9.1c0,0,4.1,5.8,9.1,0h9.1c0,0,4.1,5.8,9.1,0h9.1
			c0,0,4.1,5.8,9.1,0h9.1c0,0,4.1,5.8,9.1,0h9.1c0,0,4.1,5.8,9.1,0h9.1c0,0,4.1,5.8,9.1,0h9.1c0,0,4.1,5.8,9.1,0V91.2H267.1z"/>
		<g>
			<path class="st12" d="M276.1,111.9c0,0,4.1,5.8,9.1,0V91.2h-9.1V111.9z"/>
			<path class="st12" d="M294.2,111.9c0,0,4.1,5.8,9.1,0V91.2h-9.1V111.9z"/>
			<path class="st12" d="M312.3,111.9c0,0,4.1,5.8,9.1,0V91.2h-9.1V111.9z"/>
			<path class="st12" d="M330.4,111.9c0,0,4.1,5.8,9.1,0V91.2h-9.1V111.9z"/>
			<path class="st12" d="M348.5,111.9c0,0,4.1,5.8,9.1,0V91.2h-9.1V111.9z"/>
			<path class="st12" d="M366.7,111.9c0,0,4.1,5.8,9.1,0V91.2h-9.1V111.9z"/>
			<path class="st12" d="M384.8,111.9c0,0,4.1,5.8,9.1,0V91.2h-9.1V111.9z"/>
			<path class="st12" d="M402.9,91.2v20.7c0,0,4.1,5.8,9.1,0V91.2H402.9z"/>
		</g>
		<path class="st0" d="M526.1,166.8h-77.9c-5.3,0-9.7-4.3-9.7-9.7v-17.6c0-5.3,4.3-9.7,9.7-9.7h77.9c5.3,0,9.7,4.3,9.7,9.7v17.6
			C535.8,162.4,531.5,166.8,526.1,166.8z"/>
		<path class="st13" d="M349.6,320c0,3.1-2.5,5.6-5.6,5.6c-3.1,0-5.6-2.5-5.6-5.6c0-3.1,2.5-5.6,5.6-5.6
			C347.1,314.4,349.6,316.9,349.6,320z"/>
		<path class="st7" d="M276.2,278.8v0.6h8.1l1.3,5.8l2.3,10.5v0.4h11.9l-0.3,1.1H289v0.6h0.6c-0.5,0.2-0.9,0.7-0.9,1.3
			c0,0.8,0.6,1.4,1.4,1.4c0.8,0,1.4-0.6,1.4-1.4c0-0.6-0.4-1.1-0.9-1.3h7.9c-0.5,0.2-0.9,0.7-0.9,1.3c0,0.8,0.6,1.4,1.4,1.4
			s1.4-0.6,1.4-1.4c0-0.6-0.4-1.1-0.9-1.3h0.6l0.4-1.7h1.6v-0.4l2.8-12.8v-0.8h-19.2l-0.7-3.3H276.2z M298.9,298.2
			c0.4,0,0.8,0.4,0.8,0.8s-0.4,0.8-0.8,0.8c-0.4,0-0.8-0.4-0.8-0.8S298.5,298.2,298.9,298.2z M290.1,298.2c0.4,0,0.8,0.4,0.8,0.8
			s-0.4,0.8-0.8,0.8c-0.4,0-0.8-0.4-0.8-0.8S289.6,298.2,290.1,298.2z M297.2,290.9h-4.5l-0.3-3.7h5L297.2,290.9z M298.1,287.2h5
			l-0.8,3.7h-4.5L298.1,287.2z M292.1,282.8h5.7l-0.3,3.7h-5.1L292.1,282.8z M291.7,286.5h-5.1l-0.8-3.7h5.6L291.7,286.5z
			 M297.1,291.6l-0.3,3.7H293l-0.3-3.7H297.1z M292.3,295.3h-3.9l-0.8-3.7h4.4L292.3,295.3z M287.5,290.8l-0.8-3.6h5l0.3,3.7
			L287.5,290.8L287.5,290.8z M304,282.8l-0.8,3.7h-5.1l0.3-3.7H304z M301.4,295.3h-3.9l0.3-3.7h4.4L301.4,295.3z"/>
		<path class="st14" d="M370.6,289.5h-56c-0.4,0-0.8-0.4-0.8-0.8v-1.1c0-0.4,0.4-0.8,0.8-0.8h56c0.4,0,0.8,0.4,0.8,0.8v1.1
			C371.4,289.1,371.1,289.5,370.6,289.5z"/>
		<path class="st14" d="M350.3,296.6h-35.7c-0.4,0-0.8-0.4-0.8-0.8v-1.1c0-0.4,0.4-0.8,0.8-0.8h35.7c0.4,0,0.8,0.4,0.8,0.8v1.1
			C351.1,296.2,350.7,296.6,350.3,296.6z"/>
		<rect x="280" y="224.9" class="st14" width="85.6" height="3.4"/>
		<rect x="280" y="233.9" class="st14" width="75.3" height="3.4"/>
		<g>
			<rect x="376.7" y="224.9" class="st15" width="39.9" height="12.8"/>
			<text transform="matrix(1 0 0 1 380 233.9485)" class="st16 st3 st17">COMPRAR</text>
		</g>
		<g>
			<g>
				<path class="st18" d="M118.8,237.8c0,0-1.2-2.2-1.4-2.5c-0.2-0.3-1.1-0.8-2.3-1.2c-1.1-0.4-2.9-0.5-3-0.4
					c-0.2,0.1-0.4,0.2-0.6,0.7c-0.2,0.5-0.1,1-0.1,1s-0.5,0.5-0.3,1.2c0,0-0.5,0.5-0.1,1.2c0,0-0.4,0.5-0.1,1c0,0,0.9,0.5,1.3,0.7
					c0.3,0.3,2.3,1.1,4.4,1.6C116.5,241.1,118.7,240.9,118.8,237.8z"/>
			</g>
			<g>
				<path class="st19" d="M115.4,236.9c0,0,0.1,1.2,0.3,1.6c0.2,0.3-2.5,1.1-2.5,1.1S113.9,237.1,115.4,236.9z"/>
			</g>
			<g>
				<g>
					<path class="st20" d="M113,240.9L113,240.9l0.7,0c0.1-0.2,0.1-0.4,0.2-0.7c-0.1,0-0.1,0-0.2-0.1c-0.1,0-0.1,0-0.2-0.1
						c-0.1,0-0.2-0.1-0.3-0.1C113.2,240.4,113.1,240.7,113,240.9z M113.9,238.3c0-0.1,0.1-0.2,0.2-0.3c0,0,0-0.1,0.1-0.1
						c0,0,0,0,0,0c0,0,0-0.1,0.1-0.1c0,0,0.1-0.1,0.1-0.1c0,0,0,0,0.1-0.1c0,0,0,0,0.1-0.1c0,0,0,0,0,0v0c0-0.1,0-0.3,0-0.4
						c0,0,0,0,0,0c0,0,0,0-0.1,0c0,0,0,0,0,0c0,0,0,0,0,0c0,0,0,0,0,0c0,0,0,0,0,0c-0.1,0-0.1-0.1-0.2-0.1c0,0,0,0,0,0
						c-0.1,0-0.1-0.1-0.1-0.1c0,0,0,0,0,0c0,0,0,0,0,0c0,0,0,0,0,0c0,0,0,0,0,0c0,0,0,0,0,0c0,0,0,0,0,0c0,0,0,0,0-0.1
						c0.1,0.8,0,1.6-0.1,2.4c0,0,0-0.1,0-0.1c0,0,0-0.1,0-0.1C113.7,238.7,113.7,238.5,113.9,238.3
						C113.8,238.3,113.8,238.3,113.9,238.3z M100.1,241.7l6.6,0.1l6.5,0.1l0.1-0.2c0,0,0,0,0-0.1c0.1-0.1,0.2-0.4,0.3-0.7
						c0,0,0,0,0,0c0.1-0.2,0.1-0.4,0.2-0.7c0.1-0.2,0.1-0.5,0.2-0.7c0.1-0.2,0.1-0.5,0.1-0.7c0.1-0.4,0.1-0.8,0.1-1.3v0
						c0-0.1,0-0.3,0-0.4c0-0.4-0.1-0.8-0.1-1.2c-0.1-0.3-0.2-0.7-0.3-1c-0.1-0.2-0.2-0.4-0.3-0.7c-0.1-0.2-0.3-0.4-0.5-0.7
						c-0.2-0.2-0.3-0.3-0.5-0.5c-0.5-0.4-1.1-0.7-1.8-1c-0.6-0.2-1.3-0.4-1.9-0.4c-1.4-0.2-2.7,0.1-3.9,0.8c-1.8,1-2.9,2.9-3.6,4.3
						c-0.7,1.5-0.9,2.7-0.9,2.7l-0.2,1l0,0.2L100.1,241.7z M100.6,241.4c0-0.2,0-0.4,0.1-0.6v0c0-0.1,0-0.2,0-0.2
						c0.4-1.9,1.6-4.8,3.3-6.5c0,0,0,0,0,0c0.4-0.4,0.8-0.7,1.2-0.9c1.1-0.6,2.4-0.9,3.8-0.7c0.5,0.1,1,0.2,1.5,0.4
						c0.6,0.2,1.2,0.5,1.6,0.9c0,0,0,0,0,0c0,0,0,0,0,0c0.5,0.4,0.9,0.9,1.1,1.5c0.2,0.4,0.3,0.9,0.4,1.3v0c0,0.1,0,0.1,0,0.2
						c0,0,0,0,0,0c0.1,0.8,0,1.6-0.1,2.4c0,0,0,0,0,0c0,0.1-0.1,0.3-0.1,0.4c0,0.1-0.1,0.3-0.1,0.4c0,0.1,0,0.1,0,0.2
						c-0.1,0.4-0.2,0.7-0.3,0.9l0,0c0,0,0,0,0,0.1c0,0.1-0.1,0.2-0.1,0.3l-9,0.1l-2.5,0L100.6,241.4z M113.5,239.1c0,0,0-0.1,0-0.1
						c0,0,0-0.1,0-0.1c0.1-0.1,0.1-0.3,0.2-0.5c0,0,0-0.1,0-0.1c0-0.1,0.1-0.2,0.2-0.3c0,0,0-0.1,0.1-0.1c0,0,0,0,0,0
						c0,0,0-0.1,0.1-0.1c0,0,0.1-0.1,0.1-0.1c0,0,0,0,0.1-0.1c0,0,0,0,0.1-0.1c0,0,0,0,0,0v0c0-0.1,0-0.3,0-0.4c0,0,0,0,0,0
						c0,0,0,0-0.1,0c0,0,0,0,0,0c0,0,0,0,0,0c0,0,0,0,0,0c0,0,0,0,0,0c-0.1,0-0.1-0.1-0.2-0.1c0,0,0,0,0,0c-0.1,0-0.1-0.1-0.1-0.1
						c0,0,0,0,0,0c0,0,0,0,0,0c0,0,0,0,0,0c0,0,0,0,0,0c0,0,0,0,0,0c0,0,0,0,0,0c0,0,0,0,0-0.1C113.7,237.5,113.7,238.3,113.5,239.1
						z M113,240.9l0.7,0c0.1-0.2,0.1-0.4,0.2-0.7c-0.1,0-0.1,0-0.2-0.1c-0.1,0-0.1,0-0.2-0.1c-0.1,0-0.2-0.1-0.3-0.1
						C113.2,240.4,113.1,240.7,113,240.9z"/>
				</g>
			</g>
			<g>
				<g>
					<polygon class="st15" points="85.7,268.8 116.7,272.8 121.9,244.4 89.6,238.9 					"/>
				</g>
			</g>
			<g>
				<g>
					<path class="st20" d="M101.4,241.7l4.4,0h0l7.6,0l1.8,0l0.1-0.2c0,0,0-0.2,0.1-0.4v0c0-0.1,0-0.2,0.1-0.2
						c0.1-0.5,0.2-1.2,0.2-2.1c0-0.1,0-0.2,0-0.3v0c0-0.3,0-0.6,0-0.9v0c0-0.1,0-0.2,0-0.2c0-0.1,0-0.2,0-0.2
						c-0.1-0.5-0.2-0.9-0.3-1.4c-0.2-0.5-0.4-1-0.6-1.4c-0.1-0.1-0.2-0.3-0.3-0.4c-0.8-1-2-1.7-3.5-1.9c-0.7-0.1-1.3-0.2-2-0.1
						c-1.5,0.1-2.9,0.6-4,1.5c-0.3,0.2-0.6,0.5-0.8,0.8c0,0,0,0,0,0c-1.2,1.3-1.8,3-2.2,4.3c-0.2,0.9-0.4,1.7-0.4,2.3
						c0,0.1,0,0.2,0,0.3c0,0.2,0,0.4,0,0.4l0,0L101.4,241.7z M113,241l-10.9,0c0-0.1,0-0.2,0-0.4c0.2-1.5,0.8-5,3.2-6.9
						c1-0.9,2.3-1.3,3.7-1.3c0.5,0,1.1,0,1.7,0.1c0.7,0.1,1.3,0.3,1.8,0.6c0.3,0.1,0.5,0.3,0.7,0.5c0.3,0.3,0.5,0.5,0.8,0.9
						c0,0,0,0,0,0c0.2,0.4,0.4,0.8,0.6,1.2c0,0.1,0,0.1,0.1,0.2c0,0,0,0,0,0.1c0.1,0.3,0.2,0.7,0.2,1c0,0,0,0.1,0,0.1
						c0,0.3,0,0.6,0.1,0.8c0,0.4,0,0.8,0,1.1c0,0.6-0.1,1.1-0.2,1.4l0,0c0,0.2-0.1,0.3-0.1,0.4v0c0,0,0,0,0,0l-1,0L113,241z"/>
				</g>
			</g>
			<g>
				<g>
					<polygon class="st21" points="90.5,273.3 126.7,270.5 123.7,241.3 90.1,240.3 					"/>
				</g>
			</g>
			<g>
				<path class="st18" d="M191.5,257.1c0,0-0.3-2.5-0.3-2.8c0-0.4,0.5-1.3,1.2-2.3c0.7-1,2-2.1,2.3-2.1c0.2,0,0.4-0.1,0.9,0.2
					c0.4,0.3,0.5,0.9,0.5,0.9s0.8,0.2,1,0.9c0,0,0.7,0.1,0.8,0.9c0,0,0.8,0,0.8,0.6c0,0-0.5,0.9-0.6,1.3c-0.1,0.4-1.3,2.3-2.7,3.9
					C195.2,258.5,193.3,259.6,191.5,257.1z"/>
			</g>
			<g>
				<g>
					<path class="st20" d="M188,255.3c-0.6,1.6-0.6,3.4-0.6,4.4c0,0.3,0,0.6,0.1,0.6l0,0.2l1.6,0.2l11.4,1.6l0-0.3c0,0,0-0.2,0-0.5
						c0-0.5,0-1.4-0.1-2.4c-0.2-1.5-0.7-3.6-2.1-5.2c-0.4-0.4-0.8-0.8-1.3-1.1h0c-1-0.6-2.1-0.9-3.5-1h0c-0.2,0-0.4,0-0.7,0
						c-0.3,0-0.6,0-0.9,0.1h0c-1.2,0.2-2.2,0.7-3,1.6C188.6,254.1,188.2,254.7,188,255.3z M188.9,255c0.2-0.4,0.4-0.7,0.7-1
						c0.4-0.5,0.9-0.8,1.4-1.1c0.6-0.3,1.2-0.4,2-0.4c0,0,0.1,0,0.1,0l0,0c1.8,0,3.3,0.5,4.5,1.5l0,0c0.1,0.1,0.3,0.2,0.4,0.4
						c2,2.2,2.1,5.8,2.1,7.1c0,0.1,0,0.1,0,0.2l-9.5-1.4l-2.3-0.3c0-0.1,0-0.1,0-0.2C188,258.9,188,256.7,188.9,255z"/>
				</g>
			</g>
			<g>
				<g>
					<polygon class="st22" points="214.4,293.9 212,263.4 206.7,293.5 210.4,292.9 					"/>
				</g>
			</g>
			<g>
				<g>
					<polygon class="st23" points="206.7,293.5 175.3,288 180.4,258.7 212.1,263.2 					"/>
				</g>
			</g>
			<g>
				<g>
					<path class="st20" d="M173.1,271.9c0,0.1,0.1,0.1,0.1,0.2c0.1,0.2,0.1,0.3,0.2,0.4c0,0,0,0.1,0,0.1l0.1,0.2l2.8-0.3l2.6-0.3h0
						l1.5-0.1l4-0.4l-0.1-0.4l0-0.2l0-0.1l-0.2-1c0,0-0.1-0.4-0.3-0.9c-0.2-0.4-0.4-0.8-0.6-1.3c0,0,0,0,0-0.1c0,0,0,0,0,0
						c-0.5-1-1.4-2.2-2.6-2.9c-0.2-0.1-0.3-0.2-0.5-0.3c-0.7-0.3-1.4-0.5-2.1-0.5c-0.4,0-0.8,0-1.2,0.1c-0.5,0.1-1,0.2-1.5,0.5
						c-0.6,0.2-1.1,0.5-1.5,0.9c-0.5,0.4-0.8,1-1,1.6c-0.1,0.2-0.1,0.3-0.1,0.5C172,269.1,172.7,271,173.1,271.9z M172.8,268.3
						c0-0.4,0.1-0.8,0.2-1.2c0.3-1,1.1-1.7,2.2-2.2c0.4-0.2,0.8-0.3,1.2-0.4c0.6-0.1,1.1-0.2,1.7-0.1c0,0,0,0,0,0c0,0,0,0,0,0
						c0.5,0.1,1,0.2,1.5,0.4c0.1,0,0.1,0.1,0.2,0.1c0.3,0.1,0.5,0.3,0.8,0.5c0,0,0,0,0,0c0,0,0.1,0.1,0.1,0.1c1.1,1,2.1,2.5,2.6,3.8
						c0.3,0.6,0.4,1.1,0.6,1.6c0,0,0,0.1,0,0.1c0,0,0,0.1,0,0.1c0,0.1,0,0.1,0,0.2l-0.6,0l-2.1,0.1h0l-0.3,0l-5.3,0.4l-1.9,0.1
						c0,0,0,0,0-0.1c0,0-0.1-0.1-0.1-0.2C173.4,271.2,172.8,269.7,172.8,268.3z"/>
				</g>
			</g>
			<g>
				<g>
					<polygon class="st15" points="196.2,294.7 170.5,298 166.1,274.4 193,269.8 					"/>
				</g>
			</g>
			<g>
				<g>
					<polygon class="st24" points="201.5,293.9 193,269.8 196.2,294.5 199,293.5 					"/>
				</g>
			</g>
			<g>
				<g>
					<path class="st20" d="M171.6,271.6c0,0.1,0,0.1,0,0.2l0.1,0.2l1.5,0l2.7,0l3.7,0l0.9,0l2.8,0l0-0.3l0,0c0,0,0-0.1,0-0.2
						c0,0,0-0.1,0-0.2c0-0.2,0-0.5-0.1-0.8c0,0,0,0,0,0c0-0.2-0.1-0.4-0.1-0.6c0-0.2-0.1-0.5-0.2-0.8c-0.2-0.7-0.5-1.5-0.9-2.3
						c0,0,0,0,0,0c-0.2-0.3-0.4-0.6-0.6-1c0,0,0,0,0,0c-0.1-0.1-0.2-0.2-0.3-0.3c-0.2-0.2-0.4-0.5-0.7-0.7c0,0,0,0-0.1-0.1
						c-0.4-0.3-0.7-0.5-1.1-0.7c0,0,0,0,0,0c-0.1-0.1-0.2-0.1-0.3-0.1c0,0,0,0,0,0c-0.1-0.1-0.3-0.1-0.4-0.1h0v0
						c-0.4-0.1-0.8-0.2-1.3-0.2c-0.5,0-1.1,0-1.6,0.1c-1.4,0.2-2.5,0.9-3.1,1.9c0,0,0,0,0,0C170.9,267.8,171.5,270.9,171.6,271.6z
						 M182.5,270.4c0.1,0.4,0.1,0.8,0.1,1h0l-1.3,0l-6,0l-1.7,0l-0.6,0l-0.8,0c-0.2-0.7-0.6-3.2,0.3-5c0.1-0.1,0.1-0.2,0.2-0.4
						c0.3-0.5,0.7-0.9,1.2-1.2c0.4-0.2,0.9-0.4,1.5-0.5c0.5-0.1,0.9-0.1,1.4-0.1c0.9,0,1.6,0.2,2.3,0.6c0,0,0,0,0,0
						c0.3,0.1,0.5,0.3,0.8,0.5C181.6,266.7,182.2,269,182.5,270.4z"/>
				</g>
			</g>
			<g>
				<g>
					<polygon class="st25" points="199,297.5 193.2,271.5 192.3,298.3 195.4,297.1 					"/>
				</g>
			</g>
			<g>
				<path class="st18" d="M195.2,258.5c0,0-1.9,1.7-2.9,1.7c-1,0-1.5-2.7-1.5-2.7l0.9-1.7L195.2,258.5z"/>
			</g>
			<g>
				<path class="st18" d="M120.1,239.4c0,0-1-0.9-1.4-1.7c-0.4-0.8-2.3,3.4-2.3,3.4s2.4,0.1,3.5,0.8
					C120.8,242.6,120.1,239.4,120.1,239.4z"/>
			</g>
			<g>
				<path class="st26" d="M112.4,233.8c0,0,2.9,1.2,2.7,1.7c-0.1,0.5-0.5,0.6-0.5,0.6l1,1c0,0,0.2,1-0.9,1c0,0,0.3,0.9-0.8,0.8
					c0,0-0.1,0.7-0.6,0.7c-0.5,0-2.3-0.8-2.3-0.8s-0.3-0.3,0.1-1c0,0-0.4-0.6,0.1-1.2c0,0-0.2-0.6,0.3-1.2c0,0-0.4-1.3,0.6-1.7
					C112.1,233.7,112.3,233.7,112.4,233.8z"/>
			</g>
			<g>
				<path class="st18" d="M117.3,235.3c0,0-2.1,0.2-3.2,0.8c-0.3,0.1-0.5,0.3-0.4,0.6c0,0.3,0.5,0.6,1.4,0.6c0.9,0,2.1,0.4,2.1,0.4
					S118.1,237.2,117.3,235.3z"/>
			</g>
			<g>
				<path class="st19" d="M193.8,254.4c0,0,0.6,1.1,0.6,1.5c0,0.4,2.8-0.2,2.8-0.2S195.1,253.7,193.8,254.4z"/>
			</g>
			<g>
				<path class="st26" d="M194.4,250.2c0,0-1.7,2.6-1.3,2.9c0.4,0.3,0.7,0.2,0.7,0.2l-0.2,1.4c0,0,0.4,1,1.3,0.3c0,0,0.3,1,1.1,0.2
					c0,0,0.5,0.6,0.9,0.3c0.5-0.3,1.5-2,1.5-2s0-0.5-0.7-0.7c0,0-0.1-0.7-0.8-0.9c0,0-0.1-0.6-0.9-0.8c0,0-0.4-1.3-1.5-1
					C194.6,249.9,194.5,250,194.4,250.2z"/>
			</g>
			<g>
				<path class="st18" d="M191.2,254.2c0,0,1.8-1.1,3.1-1.2c0.3,0,0.6,0,0.7,0.2c0.1,0.3,0,0.8-0.8,1.3c-0.8,0.5-1.5,1.5-1.5,1.5
					S191.7,256.3,191.2,254.2z"/>
			</g>
			<g>
				<g>
					<path class="st15" d="M157.4,368.1c1.5,0.4,1.9,3,3.2,3.7c1.3,0.7,7.4,1.3,7.6-0.7c0.2-1.9-2.6-3.6-3.8-4.6
						c-1.3-1-4.1-4.1-4.6-5.4c0,0-0.5,0.8-2,0.6c-1.5-0.2-1.7-0.6-1.7-0.6c0.1,1.5-0.5,2.5-0.6,3.1
						C154.8,366.2,155.9,367.7,157.4,368.1z"/>
				</g>
			</g>
			<g>
				<g>
					<path class="st15" d="M147.3,368.5c1.1,1,1.4,2.7,2.6,3.4c0.4,0.2,1.1,0.4,1.9,0.6c1.5,0.3,3.5,0.3,4.4-0.2
						c0.3-0.2,0.5-0.4,0.6-0.8c0.2-1.9-2.6-4.1-3.9-5c-0.8-0.6-1.6-2-2.2-3.2c-0.4-0.8-0.7-1.5-1-2c0,0,0,0,0,0c0,0-0.1,0.1-0.3,0.3
						c-0.3,0.2-0.7,0.4-1.6,0.2c-1.2-0.2-1.7-0.5-1.8-0.6c0,0,0,0,0,0c0,0,0,0,0,0c0,0,0,0,0,0c0,0,0,0,0,0c0,0,0,0,0,0c0,0,0,0,0,0
						c-0.2,1.2-0.6,2.4-0.8,3C144.8,366,146.3,367.5,147.3,368.5z"/>
				</g>
			</g>
			<g>
				<g>
					<path class="st27" d="M158.2,217c0,0-4.8-0.5-6.5,4.1c-1.7,4.6-3.4,6.1-3.6,8.6c-0.8,9.8-5.4,7.6-4.1,13.3
						c1.3,5.7,2.2,6.5,2.2,6.5l11-2.2l11.1,0c0,0-4.4-2.2-3.4-6.8c1-4.6,3.4-12.2,2-17.4C165.5,218.1,161,217.4,158.2,217z"/>
				</g>
			</g>
			<g>
				<g>
					<polygon class="st28" points="192.3,298.3 164.4,297.3 163.9,271.4 193.2,271.4 					"/>
				</g>
			</g>
			<g>
				<g>
					<polygon class="st24" points="78.4,266.7 89.6,238.9 85.7,268.8 82.5,266.9 					"/>
				</g>
			</g>
			<g>
				<g>
					<polygon class="st29" points="82.4,272.4 90.1,240.3 90.5,273.3 86.7,271.9 					"/>
				</g>
			</g>
			<g>
				<g>
					<path class="st18" d="M166.1,283c0,0,4,14.1,4.7,17.7c0.7,3.6,2.7,21,2.9,23.9c0.2,3-6.6,16.8-7,17.8
						c-1.4,3.9-7.3,17.9-7.3,17.9s-3.8,2.3-3.4-1c1.3-10,1.9-12.5,2.8-17.7c2-11.4,6.1-12.9,5.4-14.6c-6.3-16.8-7.6-28.2-8.4-29.2
						c-0.8-1-1,0.5-1.5,2.7c-0.5,2.2,0.2,17.2-0.7,23c-0.5,3.2-1.6,10.2-1.9,14.3c-0.4,4.1-2.2,23-2.2,23s-0.2,0.7-3.1-0.9
						c-0.5-0.3-2.7-16.7-2.8-21.6c-0.1-4.9,2.1-5.6,0.4-15c-3.7-20.2-3.2-23.6,1.1-38.1C155.8,249.9,166.1,283,166.1,283z"/>
				</g>
			</g>
			<g>
				<g>
					<path class="st30" d="M116.8,241.8c0.2-0.2,10.4,7.7,11.5,8.3c2.2,1.3,4.6,1.2,7.1,1.4c2.8,0.2,6-0.1,8.7,0.4
						c1.4,0.3,1.6,0.7,2.3,2.2c2,4.1,2.7,9.2,2.9,13.7c0.3,4.7-1.5,8-3.4,12.1c-0.6,1.4-1.6,2.9-0.3,4.2c1.1,1.2,3.3,1.4,4.8,1.6
						c3.6,0.5,9.2,0.8,12.7-0.7c4.3-1.8,3.5-7.1,4-10.9c0.3-2.5,1.5-6.3,2.2-8.7c0.7-2.4,0.8-3.4,0.6-6c1.3,3.8,2.5,10.3,6,12.7
						c2.8,1.9,5.3-0.6,7.3-2.4c3.8-3.3,7.6-6.6,11.4-9.9c-0.8-0.7-1.6-1.5-2.4-2.2c-0.3-0.2-0.3-0.3-0.6-0.6
						c-0.7-0.6-0.6-0.8-1.4-0.3c-0.5,0.3-1.8,1.5-2.2,1.9c-1.4,1.3-2.6,2.1-3.9,3.3c-1.2,1.1-3.2,3.7-5.1,2.8
						c-1.4-0.7-1.8-3.6-2.3-4.8c-1.3-3.6-2.7-7.1-4.3-10.6c-1.7-3.7-5.5-5.6-9.2-7.1c-3.2-1.3-7.5-1-10.7-0.2
						c-2.3,0.6-3.1,0.6-5.3,1.2c-2.2,0.6-4.2,1.4-6.4,1.8c-2.6,0.5-5.2,0.7-7.8,0.7c-2,0-2.9-0.3-4.6-1.5c-2.3-1.6-5.7-4.4-8.2-5.7
						C118.6,237.9,118.1,240.5,116.8,241.8z"/>
				</g>
			</g>
			<g>
				<g>
					<path class="st18" d="M154.9,236.3c0,0,0.4,4.8-0.5,6.2c-0.9,1.4,0.8,3.4,4.3,2.7c3.5-0.7,3.3-2.7,3.3-2.7s-1-3-0.7-5.3
						C161.5,234.8,154.9,236.3,154.9,236.3z"/>
				</g>
			</g>
			<g>
				<g>
					<path class="st18" d="M152.6,242.1c0,0,3.2,7.4,7.3,9c0,0,4.1-3.6,3-8.9C162.8,242.1,157.6,239.4,152.6,242.1z"/>
				</g>
			</g>
			<g>
				<g>
					<path class="st18" d="M157.5,219.7c0,0-6.3,0.9-5.4,10.3c0.9,9.4,6.5,8.6,6.9,8.6c0.4,0,5.6,0.2,6.1-11.2
						C165.1,227.4,165.3,219,157.5,219.7z"/>
				</g>
			</g>
			<g>
				<g>
					<path class="st27" d="M158.3,223.1c0,0-3,3.1-4.3,4.7c-1.4,1.6-1.5,4.6-1.5,4.6s-2.3-2.8-1.4-6.1c1-3.3,3.3-9.7,9.1-7.7
						c5.8,2,6,10.7,5.3,15C165.5,233.5,162.9,224,158.3,223.1z"/>
				</g>
			</g>
			<g>
				<path class="st31" d="M160.7,238.2c0,0-2.7,1.4-5.5-0.8c0,0,1.1,1.8,2.9,1.9C160,239.4,160.7,238.2,160.7,238.2z"/>
			</g>
			<g>
				<path class="st20" d="M178.3,263.9c0.3,0.6,0.8,0.9,0.8,0.9c2.9,1.6,3.4,5.3,3.5,6.6l0.6,0C182.6,264.5,178.3,263.9,178.3,263.9
					z"/>
			</g>
			<g>
				<path class="st20" d="M178.3,264c0,0,4.7,0.2,6,7.3l-0.5,0.1c0,0-0.9-5.2-4.7-6.6C179.2,264.7,178.7,264.5,178.3,264z"/>
			</g>
			<g>
				<path class="st30" d="M145.2,281.8c0,0-6.4,13.3-2.1,40.2c0,0,13.1-1.2,32.7-2.6c0,0-8.9-36.2-9.2-38.5
					C166.3,278.6,145.2,281.8,145.2,281.8z"/>
			</g>
			<g>
				<g>
					<path class="st18" d="M159.6,360.1c0,0-1.8,1.2-3.5-0.4l-0.1,1.4c0,0,2.9,2.6,3.7-0.2V360.1z"/>
				</g>
			</g>
			<g>
				<g>
					<path class="st18" d="M149.1,359.9c0,0-1.1,1-2.7-0.5l-0.2,1.6c0,0,2.8,2.9,3.6,0.1L149.1,359.9z"/>
				</g>
			</g>
			<g>
				<g>
					<path class="st15" d="M159.6,360.9c0,0,1.5,1.8,1.4,2.1c-0.1,0.3-3.4,1-3.9,0.3c-0.5-0.7-1.1-2.2-1.1-2.2
						S158.8,362.4,159.6,360.9z"/>
				</g>
			</g>
			<g>
				<g>
					<path class="st15" d="M149.6,360.9c0,0,1.4,2,1.3,2.3c-0.1,0.3-3.1,0.8-3.6,0.1c-0.5-0.7-1.2-2.2-1.2-2.2
						S148.8,362.4,149.6,360.9z"/>
				</g>
			</g>
			<g>
				<path class="st32" d="M166.8,279c0,0-7.7,2.9-18.8-3.4c0,0-0.4,0.9-0.9,2.2c0,0,10.1,6.3,19.6,3.2
					C166.6,280.9,166.9,279.4,166.8,279z"/>
			</g>
			<g>
				<path class="st24" d="M169,252.9c0.9,2.3,1,6.5,1,6.5s0.3,1.1,0.8,2.4C170.8,255.6,169,252.9,169,252.9z"/>
			</g>
		</g>
		<g>
			<rect x="506.4" y="203.8" class="st12" width="28.9" height="28.9"/>
		</g>
		<g>
			<g>
				<path class="st33" d="M547.3,229.4c-3.5,0-6.3-3.3-6.3-7.3c0-4,2.8-7.3,6.3-7.3c3.5,0,6.3,3.3,6.3,7.3
					C553.6,226.1,550.8,229.4,547.3,229.4z M547.3,215.4c-3.1,0-5.7,3-5.7,6.7c0,3.7,2.6,6.7,5.7,6.7c3.1,0,5.7-3,5.7-6.7
					C553,218.4,550.5,215.4,547.3,215.4z"/>
			</g>
		</g>
		<g>
			<rect x="531.6" y="222.1" class="st0" width="31.6" height="45.8"/>
		</g>
		<g>
			<g>
				<path class="st33" d="M474.8,234.3c-5.2,0-9.5-4.9-9.5-11c0-6.1,4.2-11,9.5-11c5.2,0,9.4,4.9,9.4,11
					C484.3,229.4,480,234.3,474.8,234.3z M474.8,213c-4.8,0-8.7,4.6-8.7,10.3c0,5.7,3.9,10.3,8.7,10.3c4.8,0,8.7-4.6,8.7-10.3
					C483.6,217.6,479.7,213,474.8,213z"/>
			</g>
		</g>
		<g>
			<rect x="452.6" y="223.3" class="st0" width="44.6" height="44.6"/>
		</g>
		<g>
			<g>
				<path class="st33" d="M526.5,203.8c0,3.7-2.5,6.7-5.7,6.7c-3.1,0-5.7-3-5.7-6.7h-0.5c0,3.9,2.7,7.1,6.1,7.1
					c3.4,0,6.1-3.2,6.1-7.1H526.5z"/>
			</g>
		</g>
		<g>
			<rect x="535.2" y="248.4" class="st34" width="19.4" height="19.4"/>
		</g>
		<g>
			<g>
				<path class="st33" d="M548.7,248.4c0,2.5-1.7,4.5-3.8,4.5c-2.1,0-3.8-2-3.8-4.5h-0.3c0,2.6,1.8,4.8,4.1,4.8
					c2.3,0,4.1-2.2,4.1-4.8H548.7z"/>
			</g>
		</g>
		<g>
			<rect x="497.1" y="232.7" class="st15" width="38" height="35.1"/>
		</g>
		<g>
			<rect x="496.6" y="232.7" class="st35" width="39.2" height="5.5"/>
		</g>
		<g>
			<rect x="476.4" y="242.6" class="st28" width="36.8" height="25.3"/>
		</g>
		<g>
			<rect x="475.7" y="242.6" class="st36" width="38.3" height="4.4"/>
		</g>
		<path class="st37" d="M309.1,282c0,2.5-2,4.5-4.5,4.5c-2.5,0-4.5-2-4.5-4.5c0-2.5,2-4.5,4.5-4.5
			C307.1,277.5,309.1,279.5,309.1,282z"/>
		<rect x="378.3" y="286.5" class="st14" width="25.7" height="12.5"/>
		<g>
			<path class="st14" d="M299.6,266.9H289c-2,0-3.6-1.6-3.6-3.6v-10.6c0-2,1.6-3.6,3.6-3.6h10.6c2,0,3.6,1.6,3.6,3.6v10.6
				C303.2,265.3,301.6,266.9,299.6,266.9z"/>
			<path class="st14" d="M324.5,266.9h-10.6c-2,0-3.6-1.6-3.6-3.6v-10.6c0-2,1.6-3.6,3.6-3.6h10.6c2,0,3.6,1.6,3.6,3.6v10.6
				C328.1,265.3,326.5,266.9,324.5,266.9z"/>
			<path class="st14" d="M349.2,266.9h-10.6c-2,0-3.6-1.6-3.6-3.6v-10.6c0-2,1.6-3.6,3.6-3.6h10.6c2,0,3.6,1.6,3.6,3.6v10.6
				C352.8,265.3,351.2,266.9,349.2,266.9z"/>
			<path class="st14" d="M399,266.9h-10.6c-2,0-3.6-1.6-3.6-3.6v-10.6c0-2,1.6-3.6,3.6-3.6H399c2,0,3.6,1.6,3.6,3.6v10.6
				C402.6,265.3,401,266.9,399,266.9z"/>
			<path class="st14" d="M374.1,266.9h-10.6c-2,0-3.6-1.6-3.6-3.6v-10.6c0-2,1.6-3.6,3.6-3.6h10.6c2,0,3.6,1.6,3.6,3.6v10.6
				C377.7,265.3,376.1,266.9,374.1,266.9z"/>
		</g>
		<g>
			<path class="st0" d="M308.5,162h-25.2c-2.8,0-5.1-2.3-5.1-5.1v-25.2c0-2.8,2.3-5.1,5.1-5.1h25.2c2.8,0,5.1,2.3,5.1,5.1v25.2
				C313.6,159.7,311.3,162,308.5,162z M283.3,128c-2,0-3.6,1.6-3.6,3.6v25.2c0,2,1.6,3.6,3.6,3.6h25.2c2,0,3.6-1.6,3.6-3.6v-25.2
				c0-2-1.6-3.6-3.6-3.6H283.3z"/>
		</g>
		<path class="st0" d="M308.2,161.3h-24.6c-2.6,0-4.7-2.1-4.7-4.7v-5h34v5C312.9,159.2,310.8,161.3,308.2,161.3z"/>
		<rect x="318.1" y="135.1" class="st14" width="45.9" height="2.2"/>
		<rect x="318.1" y="145.2" class="st14" width="59.5" height="2.2"/>
		<rect x="318.1" y="140.1" class="st14" width="23.5" height="2.2"/>
		<g>
			<path class="st0" d="M308.5,208.8h-25.2c-2.8,0-5.1-2.3-5.1-5.1v-25.2c0-2.8,2.3-5.1,5.1-5.1h25.2c2.8,0,5.1,2.3,5.1,5.1v25.2
				C313.6,206.5,311.3,208.8,308.5,208.8z M283.3,174.8c-2,0-3.6,1.6-3.6,3.6v25.2c0,2,1.6,3.6,3.6,3.6h25.2c2,0,3.6-1.6,3.6-3.6
				v-25.2c0-2-1.6-3.6-3.6-3.6H283.3z"/>
		</g>
		<rect x="318.1" y="181.9" class="st14" width="55.3" height="2.2"/>
		<rect x="318.1" y="192" class="st14" width="34.8" height="2.2"/>
		<rect x="318.1" y="186.9" class="st14" width="21.3" height="2.2"/>
		<path class="st0" d="M308.2,208.1h-24.6c-2.6,0-4.7-2.1-4.7-4.7v-5h34v5C312.9,206,310.8,208.1,308.2,208.1z"/>
		<g>
			<g>
				<path class="st7" d="M327.4,153c-1.9-0.7-3.2,0.8-3.2,0.8s-1.3-1.5-3.2-0.8c-1.9,0.7-1.6,2.2-1.6,2.2c0.2,3,4.8,6.1,4.8,6.1
					s4.6-3.1,4.8-6.1C329,155.2,329.3,153.7,327.4,153z"/>
			</g>
		</g>
		<g>
			<g>
				<path class="st7" d="M340.9,153c-1.9-0.7-3.2,0.8-3.2,0.8s-1.3-1.5-3.2-0.8c-1.9,0.7-1.6,2.2-1.6,2.2c0.2,3,4.8,6.1,4.8,6.1
					s4.6-3.1,4.8-6.1C342.5,155.2,342.9,153.7,340.9,153z"/>
			</g>
		</g>
		<g>
			<g>
				<path class="st7" d="M354.2,153c-1.9-0.7-3.2,0.8-3.2,0.8s-1.3-1.5-3.2-0.8c-1.9,0.7-1.6,2.2-1.6,2.2c0.2,3,4.8,6.1,4.8,6.1
					s4.6-3.1,4.8-6.1C355.8,155.2,356.2,153.7,354.2,153z"/>
			</g>
		</g>
		<g>
			<g>
				<path class="st7" d="M367.5,153c-1.9-0.7-3.2,0.8-3.2,0.8s-1.3-1.5-3.2-0.8c-1.9,0.7-1.6,2.2-1.6,2.2c0.2,3,4.8,6.1,4.8,6.1
					s4.6-3.1,4.8-6.1C369.1,155.2,369.5,153.7,367.5,153z"/>
			</g>
		</g>
		<g>
			<g>
				<path class="st7" d="M381,153c-1.9-0.7-3.2,0.8-3.2,0.8s-1.3-1.5-3.2-0.8c-1.9,0.7-1.6,2.2-1.6,2.2c0.2,3,4.8,6.1,4.8,6.1
					s4.6-3.1,4.8-6.1C382.5,155.2,382.9,153.7,381,153z"/>
			</g>
		</g>
		<g>
			<g>
				<path class="st7" d="M327.4,200.4c-1.9-0.7-3.2,0.8-3.2,0.8s-1.3-1.5-3.2-0.8c-1.9,0.7-1.6,2.2-1.6,2.2c0.2,3,4.8,6.1,4.8,6.1
					s4.6-3.1,4.8-6.1C329,202.6,329.3,201.1,327.4,200.4z"/>
			</g>
		</g>
		<g>
			<g>
				<path class="st7" d="M340.9,200.4c-1.9-0.7-3.2,0.8-3.2,0.8s-1.3-1.5-3.2-0.8c-1.9,0.7-1.6,2.2-1.6,2.2c0.2,3,4.8,6.1,4.8,6.1
					s4.6-3.1,4.8-6.1C342.5,202.6,342.9,201.1,340.9,200.4z"/>
			</g>
		</g>
		<g>
			<g>
				<path class="st7" d="M354.2,200.4c-1.9-0.7-3.2,0.8-3.2,0.8s-1.3-1.5-3.2-0.8c-1.9,0.7-1.6,2.2-1.6,2.2c0.2,3,4.8,6.1,4.8,6.1
					s4.6-3.1,4.8-6.1C355.8,202.6,356.2,201.1,354.2,200.4z"/>
			</g>
		</g>
		<g>
			<polygon class="st14" points="403.1,191.6 390.5,191.6 390.5,190.6 402.1,190.6 402.1,142.8 390.5,142.8 390.5,141.9 
				403.1,141.9 			"/>
		</g>
		<g>
			<g>
				<path class="st15" d="M412.2,251c0,0-1.1,15.5,1.9,17.3c1.9,1.2,9.4,5.1,9.2,5.8c-0.2,0.7-4.3,6.5-4.3,6.5s-14.5-9.5-15-12.6
					c-0.5-2.9,0.7-22.6,2.7-23.5c1.5-0.7,2.3-0.1,4.2,1.3C413.6,247.7,412.2,251,412.2,251z"/>
			</g>
			<g>
				<g>
					<g>
						<path class="st38" d="M410.5,363.5c0,0-0.5,3.1-0.5,3.6c-0.1,0.5-5-0.3-5-0.3l-0.4-3.7C404.6,363.1,409.9,363,410.5,363.5z"/>
					</g>
				</g>
			</g>
			<g>
				<g>
					<g>
						<path class="st39" d="M410,366.7c0,0,1.6,1.9,3.1,2.7c1.5,0.8,3.9,1.1,4.8,2c0.6,0.6,2.4,3.3-3.9,3.2c-6.3-0.1-9.4,0.4-10-0.6
							c-0.7-1,1-7.5,1-7.5S406.4,367,410,366.7z"/>
					</g>
				</g>
			</g>
			<g>
				<g>
					<g>
						<path class="st38" d="M435.3,363.5c0,0-0.5,3.1-0.5,3.6c-0.1,0.5-5-0.3-5-0.3l-0.4-3.7C429.4,363.1,434.7,363,435.3,363.5z"/>
					</g>
				</g>
			</g>
			<g>
				<g>
					<g>
						<path class="st39" d="M434.9,366.7c0,0,1.6,1.9,3.1,2.7c1.5,0.8,7.1,1.5,8,2.3c0.6,0.6,1.7,3.1-7.2,2.9
							c-6.3-0.2-9.4,0.4-10-0.6c-0.7-1,1-7.5,1-7.5S431.2,367,434.9,366.7z"/>
					</g>
				</g>
			</g>
			<g>
				<g>
					<g>
						<path class="st39" d="M412.3,283.1c0,0-4.7,7.4-4.3,14.1c0.3,6.7-0.4,13.8-1.1,20.8c-0.8,7.8-2.9,24-3,28.2
							c-0.1,4.2,0.2,19.8,0.2,19.8l8.1-0.1c0,0,2.9-31.7,4.3-35c1.4-3.3,7.1-27.1,7.3-29.7C423.9,298.6,412.3,283.1,412.3,283.1z"/>
					</g>
				</g>
			</g>
			<g>
				<g>
					<g>
						<path class="st39" d="M436.8,284.1c0,0,1.8,18.2,2.3,22.3c0.5,4.1,0.1,21.8,0.4,24.4c0.2,2.6-1.5,29.6-2,34.8l-8.9-0.1
							c0,0-0.6-21.9-0.6-32.5c0-10.6-2.7-23-5.9-30c-3.1-7-10.3-7.2-12.2-20.2C409.9,282.7,434.2,280,436.8,284.1z"/>
					</g>
				</g>
			</g>
			<g>
				<g>
					<g>
						<path class="st18" d="M417.2,220.7c0,0,5.5-3.7,9.4,0.3c3.9,4,5.8,13.3,3,15.2c-2.8,1.9-7.5,2.4-9.8-0.2
							c-2.3-2.5-4.7-6.4-5.3-9.2C414,223.9,415.8,221.9,417.2,220.7z"/>
					</g>
				</g>
			</g>
			<g>
				<g>
					<g>
						<path class="st18" d="M427.8,236.8c0,0-0.1,3.9,0.4,4.7c0.4,0.8-8.1,0.9-8.1,0.9s-0.7-4.5-2-8.3
							C416.7,230.2,427.8,236.8,427.8,236.8z"/>
					</g>
				</g>
			</g>
			<g>
				<g>
					<g>
						<path class="st40" d="M418.2,233.9c0,0,0.8,0.8,3-0.1c2.3-0.9,4.4-4.7,5.3-5.3c0.9-0.6,0.8-1.1,0.8-1.1l0.8,0.7l1.1-0.2
							c0,0-1.6-2.6-0.4-4c1.2-1.5-3.6-8.7-10.5-4.3c0,0-5.4,2.9-4.4,6.2C414.8,229.1,416.6,232.6,418.2,233.9z"/>
					</g>
				</g>
			</g>
			<g>
				<g>
					<g>
						<path class="st41" d="M428.6,241.4c0,0,0-1.6-0.7-1.7c-0.7-0.2-7.9-0.8-8.8-0.5v1.9C419.1,241,420.8,242.1,428.6,241.4z"/>
					</g>
				</g>
			</g>
			<g>
				<g>
					<g>
						<path class="st18" d="M426.9,226.3c-0.3-0.5-2-1.8-2.2,0c-0.1,1.8,1.7,3.8,2.4,3.4C427.9,229.3,427.5,227.6,426.9,226.3z"/>
					</g>
				</g>
			</g>
			<g>
				<g>
					<g>
						<path class="st40" d="M415.6,221.7c0,0-7.9,2.1,2.3,12L415.6,221.7z"/>
					</g>
				</g>
			</g>
			<g>
				<path class="st18" d="M473.3,263.5c0,0,0.7,0.2,1.2-0.1c0.9-0.4,1.5-1.8,2.8-1.4c1.3,0.4,1.1,4.8,0.6,5.5
					c-0.5,0.7-2.5,0.8-5.2-0.4C470.1,266,473.3,263.5,473.3,263.5z"/>
			</g>
			<g>
				<path class="st18" d="M476.8,262c0,0,2.1-0.3,4.4-0.3c2.1,0,4.5,0.3,4.6,0.7c0.3,0.9-2,0.6-4.1,0.8c-1.9,0.1-1.6,0.1-1.6,0.1
					s-0.1-0.1,2,0.1c2.2,0.2,4.5,0.7,4.6,1.2c0.1,0.2,0.1,1-0.8,0.6c0.5,0.1,0.4,0,0.4,0.2c-0.1,1-3.5,1.1-4.8,1.2
					c1,0,1.8,0,1.3,0.6c-0.6,0.7-5.3,0.7-7,0.8C474.1,268.2,476.8,262,476.8,262z"/>
			</g>
			<g>
				<g>
					<g>
						<path class="st15" d="M439.2,243.6c-5.1-0.9-10.6-2.2-10.6-2.2l-9.6-0.4c0,0-8.8,1.9-12.3,3.5c-0.3,0.1-0.3,7.8-1.2,9.9
							l2.9,6.1c0,0,1.7,12,2,17.3c0.2,2.4-3.4,23-3.4,23s3.8,1.1,10.4,1.8c6.5,0.7,22.9-0.3,23-1c0.1-0.8-3.2-28.8-3.3-30.2
							c-0.2-2.2,0.6-12.5,0.6-12.5c1.2,1.7,8.4,7.9,11.8,9.8c2.5,1.4,8.5,0.9,10.3,0.7c3.9-0.4,14.6-0.9,14.8-1.3
							c0.2-0.2-0.6-4.7-1.1-4.9c-0.4-0.1-14.2-0.8-17.6-0.6c-1.4,0.1-6-5-6-5S442,244.9,439.2,243.6z"/>
					</g>
				</g>
			</g>
		</g>
		<g>
			<g>
				<path class="st18" d="M286.5,280c0,0,1.7,0.6,3,0.8c1.3,0.1,3.2,1.5,3.6,2.1c0.5,0.6,4.4,4.8,4.4,5.3c0.1,0.5-1,0.4-1.4-0.1
					c-0.4-0.4-3.8-3.8-3.8-3.8s3.8,4.2,3.8,4.7c0,0.5-0.6,0.9-1.3,0.5c0,0-0.6,1.2-1.6,0.2l-2-2c0,0,0.8,1.2-0.3,0.9
					c-0.6-0.2-2.6-2.7-3.1-3.1c-0.6-0.4-2.7-3.6-2.7-3.6L286.5,280z"/>
			</g>
			<g>
				<path class="st42" d="M272.9,362.3c0,0,1.5,2.9,2.3,3.5c0.9,0.6,5.8,5.4,6.8,5.8c1,0.4,4.3,1.1,4.2,2.6c0,1.5-8.4,1.1-10,0.5
					c-1.6-0.6-4.4-4.3-5.5-4.2c-1.1,0-0.7,4.5-0.7,4.5h-1.2c0,0-1.5-4.7-1.5-6.4c0-1.7,1-6.2,1-6.2H272.9z"/>
			</g>
			<g>
				<path class="st42" d="M252.5,360.5c0,0,0.6,2.9,1.7,3.9c1,1,5,5.2,6,5.7c1,0.5,2.9,0.8,3.5,1.5c0.6,0.7,0.2,2.9-3.5,2.6
					c-3.7-0.2-5-0.2-5.9-0.9c-0.9-0.8-3.8-3.4-4.6-3.4v4.1h-1c0,0-1.8-5.4-1.2-7.7c0.6-2.3,0.6-5.4,0.6-5.4L252.5,360.5z"/>
			</g>
			<g>
				<path class="st18" d="M254,237.4c0,0-1.7,4.4-0.4,7.8c0,0-6.3-0.4-6.5-1.1c-0.2-0.7,0.3-7.3-0.6-9.2
					C245.7,232.9,254,237.4,254,237.4z"/>
			</g>
			<g>
				<g>
					<g>
						<g>
							<path class="st18" d="M242.7,296.4c0,0,0.4,1,0.3,1.7c0,0.6,0.3,1.5,0.4,2c0.1,0.5,0.4,2.7,0.3,3.2c0,0.2-0.7,1.5-0.7,1.9
								c0,0.5,0.1,1.4-0.3,1.4c-0.4,0-0.7-0.8-0.7-0.8s0,0.4-0.4,0.5c-0.7,0.2-1-0.2-1-0.2s-0.3,0.4-0.6,0.4c-0.7,0-0.9-0.3-0.9-0.3
								s-0.3,0.2-0.8,0.1c-0.6-0.1-0.7-0.7-0.7-0.7s-0.8,0-0.9-0.4c-0.2-0.4-0.1-0.8-0.1-1.1c0-0.3,0.5-3.2,1.8-5
								c1.3-1.8,0.6-4.2,0.6-4.2L242.7,296.4z"/>
						</g>
					</g>
				</g>
			</g>
			<g>
				<g>
					<g>
						<path class="st26" d="M242.1,305.5c0,0,0.5-2.5-0.1-3.2c-0.6-0.7-0.8,0.2-0.8,0.2s0.2-0.9-0.5-1.2c-0.7-0.3-0.9,0.8-0.9,0.8
							s0-0.7-0.8-0.7c-0.8,0-0.8,0.9-0.8,0.9s-0.6-1-1.2-0.3c-1,1.3-0.6,3.1-0.6,3.1s0.2,0.4,0.9,0.4c0,0,0.3,1.1,1.5,0.6
							c0,0,1,0.9,1.6,0C240.6,306.1,241.7,306.9,242.1,305.5z"/>
					</g>
				</g>
			</g>
			<g>
				<path class="st43" d="M254.6,243.7c0,0,3.7,1.3,5.4,1.6c1.7,0.4,5.2,2,4.9,8c-0.3,6.1-1.3,11.3-1.7,13.9
					c-0.4,2.6-0.1,9.2,0.5,12.5c0,0-8.9,2.2-19.3,0c0,0,1.8-5.5,1.8-6.9c0-1.4-6.2-13.1-6.5-15c-0.3-1.8-1.5-10,1.3-11.8
					c2.8-1.8,5.1-1.6,6.3-2.4C248.4,242.9,252.9,243.2,254.6,243.7z"/>
			</g>
			<g>
				<path class="st43" d="M259.4,245.2c0,0,4.1-0.1,7,6.3c2.9,6.4,3.6,10.1,4.3,11.1c0.7,0.9,3,4.4,5.3,6.1
					c2.3,1.7,11.8,11.3,11.8,11.3l-2.6,3.3c0,0-13.7-9.7-15.1-11.3c-1.4-1.7-10.1-14.2-10.6-16.1C258.9,254,254.9,247.2,259.4,245.2
					z"/>
			</g>
			<g>
				<path class="st43" d="M234.9,277c0,2.6,2.6,20,2.6,20l5,0.2c0,0-1.6-17.3-2.2-21.3c-0.2-1.2,0-3,0.3-5v0
					c0.2-1.3,0.4-2.6,0.7-3.9c0.7-3.5,1.5-6.6,1.5-6.6s4.5-14.9-2.4-13.8c0,0-2.4,2.9-3.2,7.4c-0.8,4.5-1.6,11.2-1.4,13.8
					C235.9,270.5,234.9,275.2,234.9,277z"/>
			</g>
			<g>
				<path class="st44" d="M263.7,279.8c0,0,1.6,3.8,1.8,4.8c0.1,1,5.2,13.5,5.5,17.2c0.4,3.7,1.4,13.7,1.8,15.1
					c0.4,1.4-0.9,7.8-1,9.2c-0.2,1.4-0.1,24.7,1.6,36.1c0,0-4,1.7-7,0c0,0-5-17.9-4.7-28.3c0.3-10.3,1.6-14.7,0-18.9
					c-1.6-4.2-11-16.7-11.9-18c-0.9-1.3-6.9-8.7-1.3-16.6C254,272.5,263.7,279.8,263.7,279.8z"/>
			</g>
			<g>
				<path class="st44" d="M244.2,313.8c0.5,3.3,0,7.7-1.1,19.8c-1,12.1,1.8,26.8,1.8,26.8c3.6,1.2,7.8,0,7.8,0
					c-0.1-0.9,0-29.6,0-32.2s0.7-5.5,0.9-8.4c0.1-2,1.1-5.7,2.1-9.5c0.3-1.1,0.6-2.3,1-3.4c0,0,0,0,0,0c0.2-0.6,0.4-1.2,0.5-1.8
					c1.5-5.1,3.5-24.9,3.5-24.9s-11-8.9-16.4-0.5c-5.4,8.3-2.6,14.4-2.4,15.5C242.1,296.3,243.7,310.5,244.2,313.8z"/>
			</g>
			<g>
				<path class="st43" d="M264.5,264.3c0,0-0.7,14.9,2.8,23.5c0,0-11.7,3.9-26.9,0c0,0,3.2-10.7,3-12.3c-0.3-1.6-5.9-20.5-4.2-25
					C241,246.1,262.8,250.3,264.5,264.3z"/>
			</g>
			<g>
				<path class="st18" d="M250.5,220.1c2.6-0.3,9.5,0.2,9,10.5c-0.5,10.3-4.3,9.7-8,8.6c-3.7-1.1-8.2-9.1-8.2-11.2
					C243.3,225.9,243,221,250.5,220.1z"/>
			</g>
			<g>
				<path class="st45" d="M259.1,225.9c0,0-3,3.8-6,4.7c0,0-2.3,4.1-6.3,5.2c0,0-8.6-8.2-1.4-14.4
					C252.7,215.3,259.2,222.8,259.1,225.9z"/>
			</g>
			<g>
				<path class="st18" d="M253.7,229.2c-0.1-0.6-1.3-1.7-2.3-0.4c-1,1.3,0.8,4.3,1.5,4.3C253.5,233.1,254.1,231.4,253.7,229.2z"/>
			</g>
			<g>
				<path class="st45" d="M244.2,223.3c-0.2-0.3-6.7-3.3-8.1,2.9c-1.4,6.1,5.2,13.2,6.4,16.3c1.2,3.1,0,10.3,0,10.3s3.4-3.7,4.6-7.5
					C248.5,241,249,230.5,244.2,223.3z"/>
			</g>
			<g>
				<path class="st42" d="M248.8,296c0.1,0.2,5.6,12.4,7,14.5c0.3-1.1,0.6-2.3,1-3.4c0,0,0,0,0,0S249,296.2,248.8,296z"/>
			</g>
			<g>
				<path class="st46" d="M239.5,258.5c0,0,0.2,7.7,1.1,12.4c0.2-1.3,0.4-2.6,0.7-3.9C241.3,266.9,239.7,259.8,239.5,258.5z"/>
			</g>
		</g>
		<g>
			<text transform="matrix(1 0 0 1 466.2531 147.3131)"><tspan x="0" y="0" class="st2 st3 st4">Retire</tspan><tspan x="0" y="12" class="st2 st3 st4">na loja</tspan></text>
		</g>
	</g>
</g>
<g>
	<rect x="285.6" y="176.4" class="st2" width="20.1" height="20.3"/>
	<g>
		<rect x="286.9" y="177.7" class="st0" width="0.7" height="0.7"/>
		<rect x="287.6" y="177.7" class="st0" width="0.7" height="0.7"/>
		<rect x="288.3" y="177.7" class="st0" width="0.7" height="0.7"/>
		<rect x="289" y="177.7" class="st0" width="0.7" height="0.7"/>
		<rect x="289.7" y="177.7" class="st0" width="0.7" height="0.7"/>
		<rect x="290.4" y="177.7" class="st0" width="0.7" height="0.7"/>
		<rect x="291.1" y="177.7" class="st0" width="0.7" height="0.7"/>
		<rect x="292.5" y="177.7" class="st0" width="0.7" height="0.7"/>
		<rect x="293.2" y="177.7" class="st0" width="0.7" height="0.7"/>
		<rect x="293.9" y="177.7" class="st0" width="0.7" height="0.7"/>
		<rect x="294.6" y="177.7" class="st0" width="0.7" height="0.7"/>
		<rect x="299.5" y="177.7" class="st0" width="0.7" height="0.7"/>
		<rect x="300.2" y="177.7" class="st0" width="0.7" height="0.7"/>
		<rect x="300.9" y="177.7" class="st0" width="0.7" height="0.7"/>
		<rect x="301.6" y="177.7" class="st0" width="0.7" height="0.7"/>
		<rect x="302.3" y="177.7" class="st0" width="0.7" height="0.7"/>
		<rect x="303" y="177.7" class="st0" width="0.7" height="0.7"/>
		<rect x="303.7" y="177.7" class="st0" width="0.7" height="0.7"/>
		<rect x="286.9" y="178.4" class="st0" width="0.7" height="0.7"/>
		<rect x="291.1" y="178.4" class="st0" width="0.7" height="0.7"/>
		<rect x="294.6" y="178.4" class="st0" width="0.7" height="0.7"/>
		<rect x="295.3" y="178.4" class="st0" width="0.7" height="0.7"/>
		<rect x="296" y="178.4" class="st0" width="0.7" height="0.7"/>
		<rect x="296.7" y="178.4" class="st0" width="0.7" height="0.7"/>
		<rect x="298.1" y="178.4" class="st0" width="0.7" height="0.7"/>
		<rect x="299.5" y="178.4" class="st0" width="0.7" height="0.7"/>
		<rect x="303.7" y="178.4" class="st0" width="0.7" height="0.7"/>
		<rect x="286.9" y="179.1" class="st0" width="0.7" height="0.7"/>
		<rect x="288.3" y="179.1" class="st0" width="0.7" height="0.7"/>
		<rect x="289" y="179.1" class="st0" width="0.7" height="0.7"/>
		<rect x="289.7" y="179.1" class="st0" width="0.7" height="0.7"/>
		<rect x="291.1" y="179.1" class="st0" width="0.7" height="0.7"/>
		<rect x="293.2" y="179.1" class="st0" width="0.7" height="0.7"/>
		<rect x="294.6" y="179.1" class="st0" width="0.7" height="0.7"/>
		<rect x="296" y="179.1" class="st0" width="0.7" height="0.7"/>
		<rect x="297.4" y="179.1" class="st0" width="0.7" height="0.7"/>
		<rect x="298.1" y="179.1" class="st0" width="0.7" height="0.7"/>
		<rect x="299.5" y="179.1" class="st0" width="0.7" height="0.7"/>
		<rect x="300.9" y="179.1" class="st0" width="0.7" height="0.7"/>
		<rect x="301.6" y="179.1" class="st0" width="0.7" height="0.7"/>
		<rect x="302.3" y="179.1" class="st0" width="0.7" height="0.7"/>
		<rect x="303.7" y="179.1" class="st0" width="0.7" height="0.7"/>
		<rect x="286.9" y="179.8" class="st0" width="0.7" height="0.7"/>
		<rect x="288.3" y="179.8" class="st0" width="0.7" height="0.7"/>
		<rect x="289" y="179.8" class="st0" width="0.7" height="0.7"/>
		<rect x="289.7" y="179.8" class="st0" width="0.7" height="0.7"/>
		<rect x="291.1" y="179.8" class="st0" width="0.7" height="0.7"/>
		<rect x="293.9" y="179.8" class="st0" width="0.7" height="0.7"/>
		<rect x="294.6" y="179.8" class="st0" width="0.7" height="0.7"/>
		<rect x="296" y="179.8" class="st0" width="0.7" height="0.7"/>
		<rect x="297.4" y="179.8" class="st0" width="0.7" height="0.7"/>
		<rect x="298.1" y="179.8" class="st0" width="0.7" height="0.7"/>
		<rect x="299.5" y="179.8" class="st0" width="0.7" height="0.7"/>
		<rect x="300.9" y="179.8" class="st0" width="0.7" height="0.7"/>
		<rect x="301.6" y="179.8" class="st0" width="0.7" height="0.7"/>
		<rect x="302.3" y="179.8" class="st0" width="0.7" height="0.7"/>
		<rect x="303.7" y="179.8" class="st0" width="0.7" height="0.7"/>
		<rect x="286.9" y="180.5" class="st0" width="0.7" height="0.7"/>
		<rect x="288.3" y="180.5" class="st0" width="0.7" height="0.7"/>
		<rect x="289" y="180.5" class="st0" width="0.7" height="0.7"/>
		<rect x="289.7" y="180.5" class="st0" width="0.7" height="0.7"/>
		<rect x="291.1" y="180.5" class="st0" width="0.7" height="0.7"/>
		<rect x="293.9" y="180.5" class="st0" width="0.7" height="0.7"/>
		<rect x="294.6" y="180.5" class="st0" width="0.7" height="0.7"/>
		<rect x="295.3" y="180.5" class="st0" width="0.7" height="0.7"/>
		<rect x="296.7" y="180.5" class="st0" width="0.7" height="0.7"/>
		<rect x="298.1" y="180.5" class="st0" width="0.7" height="0.7"/>
		<rect x="299.5" y="180.5" class="st0" width="0.7" height="0.7"/>
		<rect x="300.9" y="180.5" class="st0" width="0.7" height="0.7"/>
		<rect x="301.6" y="180.5" class="st0" width="0.7" height="0.7"/>
		<rect x="302.3" y="180.5" class="st0" width="0.7" height="0.7"/>
		<rect x="303.7" y="180.5" class="st0" width="0.7" height="0.7"/>
		<rect x="286.9" y="181.2" class="st0" width="0.7" height="0.7"/>
		<rect x="291.1" y="181.2" class="st0" width="0.7" height="0.7"/>
		<rect x="293.2" y="181.2" class="st0" width="0.7" height="0.7"/>
		<rect x="294.6" y="181.2" class="st0" width="0.7" height="0.7"/>
		<rect x="296.7" y="181.2" class="st0" width="0.7" height="0.7"/>
		<rect x="298.1" y="181.2" class="st0" width="0.7" height="0.7"/>
		<rect x="299.5" y="181.2" class="st0" width="0.7" height="0.7"/>
		<rect x="303.7" y="181.2" class="st0" width="0.7" height="0.7"/>
		<rect x="286.9" y="181.9" class="st0" width="0.7" height="0.7"/>
		<rect x="287.6" y="181.9" class="st0" width="0.7" height="0.7"/>
		<rect x="288.3" y="181.9" class="st0" width="0.7" height="0.7"/>
		<rect x="289" y="181.9" class="st0" width="0.7" height="0.7"/>
		<rect x="289.7" y="181.9" class="st0" width="0.7" height="0.7"/>
		<rect x="290.4" y="181.9" class="st0" width="0.7" height="0.7"/>
		<rect x="291.1" y="181.9" class="st0" width="0.7" height="0.7"/>
		<rect x="292.5" y="181.9" class="st0" width="0.7" height="0.7"/>
		<rect x="293.9" y="181.9" class="st0" width="0.7" height="0.7"/>
		<rect x="295.3" y="181.9" class="st0" width="0.7" height="0.7"/>
		<rect x="296.7" y="181.9" class="st0" width="0.7" height="0.7"/>
		<rect x="298.1" y="181.9" class="st0" width="0.7" height="0.7"/>
		<rect x="299.5" y="181.9" class="st0" width="0.7" height="0.7"/>
		<rect x="300.2" y="181.9" class="st0" width="0.7" height="0.7"/>
		<rect x="300.9" y="181.9" class="st0" width="0.7" height="0.7"/>
		<rect x="301.6" y="181.9" class="st0" width="0.7" height="0.7"/>
		<rect x="302.3" y="181.9" class="st0" width="0.7" height="0.7"/>
		<rect x="303" y="181.9" class="st0" width="0.7" height="0.7"/>
		<rect x="303.7" y="181.9" class="st0" width="0.7" height="0.7"/>
		<rect x="292.5" y="182.6" class="st0" width="0.7" height="0.7"/>
		<rect x="293.2" y="182.6" class="st0" width="0.7" height="0.7"/>
		<rect x="295.3" y="182.6" class="st0" width="0.7" height="0.7"/>
		<rect x="296" y="182.6" class="st0" width="0.7" height="0.7"/>
		<rect x="286.9" y="183.3" class="st0" width="0.7" height="0.7"/>
		<rect x="287.6" y="183.3" class="st0" width="0.7" height="0.7"/>
		<rect x="289" y="183.3" class="st0" width="0.7" height="0.7"/>
		<rect x="289.7" y="183.3" class="st0" width="0.7" height="0.7"/>
		<rect x="291.1" y="183.3" class="st0" width="0.7" height="0.7"/>
		<rect x="293.2" y="183.3" class="st0" width="0.7" height="0.7"/>
		<rect x="295.3" y="183.3" class="st0" width="0.7" height="0.7"/>
		<rect x="296.7" y="183.3" class="st0" width="0.7" height="0.7"/>
		<rect x="297.4" y="183.3" class="st0" width="0.7" height="0.7"/>
		<rect x="299.5" y="183.3" class="st0" width="0.7" height="0.7"/>
		<rect x="303.7" y="183.3" class="st0" width="0.7" height="0.7"/>
		<rect x="286.9" y="184" class="st0" width="0.7" height="0.7"/>
		<rect x="287.6" y="184" class="st0" width="0.7" height="0.7"/>
		<rect x="288.3" y="184" class="st0" width="0.7" height="0.7"/>
		<rect x="289.7" y="184" class="st0" width="0.7" height="0.7"/>
		<rect x="290.4" y="184" class="st0" width="0.7" height="0.7"/>
		<rect x="291.8" y="184" class="st0" width="0.7" height="0.7"/>
		<rect x="293.9" y="184" class="st0" width="0.7" height="0.7"/>
		<rect x="296" y="184" class="st0" width="0.7" height="0.7"/>
		<rect x="296.7" y="184" class="st0" width="0.7" height="0.7"/>
		<rect x="297.4" y="184" class="st0" width="0.7" height="0.7"/>
		<rect x="298.8" y="184" class="st0" width="0.7" height="0.7"/>
		<rect x="300.2" y="184" class="st0" width="0.7" height="0.7"/>
		<rect x="286.9" y="184.8" class="st0" width="0.7" height="0.7"/>
		<rect x="288.3" y="184.8" class="st0" width="0.7" height="0.7"/>
		<rect x="289.7" y="184.8" class="st0" width="0.7" height="0.7"/>
		<rect x="291.1" y="184.8" class="st0" width="0.7" height="0.7"/>
		<rect x="291.8" y="184.8" class="st0" width="0.7" height="0.7"/>
		<rect x="295.3" y="184.8" class="st0" width="0.7" height="0.7"/>
		<rect x="297.4" y="184.8" class="st0" width="0.7" height="0.7"/>
		<rect x="298.1" y="184.8" class="st0" width="0.7" height="0.7"/>
		<rect x="299.5" y="184.8" class="st0" width="0.7" height="0.7"/>
		<rect x="303.7" y="184.8" class="st0" width="0.7" height="0.7"/>
		<rect x="286.9" y="185.5" class="st0" width="0.7" height="0.7"/>
		<rect x="287.6" y="185.5" class="st0" width="0.7" height="0.7"/>
		<rect x="291.8" y="185.5" class="st0" width="0.7" height="0.7"/>
		<rect x="300.2" y="185.5" class="st0" width="0.7" height="0.7"/>
		<rect x="301.6" y="185.5" class="st0" width="0.7" height="0.7"/>
		<rect x="302.3" y="185.5" class="st0" width="0.7" height="0.7"/>
		<rect x="303.7" y="185.5" class="st0" width="0.7" height="0.7"/>
		<rect x="288.3" y="186.2" class="st0" width="0.7" height="0.7"/>
		<rect x="289" y="186.2" class="st0" width="0.7" height="0.7"/>
		<rect x="291.1" y="186.2" class="st0" width="0.7" height="0.7"/>
		<rect x="292.5" y="186.2" class="st0" width="0.7" height="0.7"/>
		<rect x="299.5" y="186.2" class="st0" width="0.7" height="0.7"/>
		<rect x="303.7" y="186.2" class="st0" width="0.7" height="0.7"/>
		<rect x="286.9" y="186.9" class="st0" width="0.7" height="0.7"/>
		<rect x="290.4" y="186.9" class="st0" width="0.7" height="0.7"/>
		<rect x="291.8" y="186.9" class="st0" width="0.7" height="0.7"/>
		<rect x="293.9" y="186.9" class="st0" width="0.7" height="0.7"/>
		<rect x="295.3" y="186.9" class="st0" width="0.7" height="0.7"/>
		<rect x="298.1" y="186.9" class="st0" width="0.7" height="0.7"/>
		<rect x="298.8" y="186.9" class="st0" width="0.7" height="0.7"/>
		<rect x="300.9" y="186.9" class="st0" width="0.7" height="0.7"/>
		<rect x="303" y="186.9" class="st0" width="0.7" height="0.7"/>
		<rect x="286.9" y="187.6" class="st0" width="0.7" height="0.7"/>
		<rect x="287.6" y="187.6" class="st0" width="0.7" height="0.7"/>
		<rect x="290.4" y="187.6" class="st0" width="0.7" height="0.7"/>
		<rect x="291.1" y="187.6" class="st0" width="0.7" height="0.7"/>
		<rect x="291.8" y="187.6" class="st0" width="0.7" height="0.7"/>
		<rect x="293.2" y="187.6" class="st0" width="0.7" height="0.7"/>
		<rect x="296.7" y="187.6" class="st0" width="0.7" height="0.7"/>
		<rect x="297.4" y="187.6" class="st0" width="0.7" height="0.7"/>
		<rect x="298.8" y="187.6" class="st0" width="0.7" height="0.7"/>
		<rect x="299.5" y="187.6" class="st0" width="0.7" height="0.7"/>
		<rect x="300.9" y="187.6" class="st0" width="0.7" height="0.7"/>
		<rect x="301.6" y="187.6" class="st0" width="0.7" height="0.7"/>
		<rect x="302.3" y="187.6" class="st0" width="0.7" height="0.7"/>
		<rect x="303" y="187.6" class="st0" width="0.7" height="0.7"/>
		<rect x="303.7" y="187.6" class="st0" width="0.7" height="0.7"/>
		<rect x="286.9" y="188.3" class="st0" width="0.7" height="0.7"/>
		<rect x="290.4" y="188.3" class="st0" width="0.7" height="0.7"/>
		<rect x="291.8" y="188.3" class="st0" width="0.7" height="0.7"/>
		<rect x="293.2" y="188.3" class="st0" width="0.7" height="0.7"/>
		<rect x="296.7" y="188.3" class="st0" width="0.7" height="0.7"/>
		<rect x="298.1" y="188.3" class="st0" width="0.7" height="0.7"/>
		<rect x="298.8" y="188.3" class="st0" width="0.7" height="0.7"/>
		<rect x="300.2" y="188.3" class="st0" width="0.7" height="0.7"/>
		<rect x="301.6" y="188.3" class="st0" width="0.7" height="0.7"/>
		<rect x="302.3" y="188.3" class="st0" width="0.7" height="0.7"/>
		<rect x="303.7" y="188.3" class="st0" width="0.7" height="0.7"/>
		<rect x="286.9" y="189" class="st0" width="0.7" height="0.7"/>
		<rect x="288.3" y="189" class="st0" width="0.7" height="0.7"/>
		<rect x="289" y="189" class="st0" width="0.7" height="0.7"/>
		<rect x="289.7" y="189" class="st0" width="0.7" height="0.7"/>
		<rect x="291.1" y="189" class="st0" width="0.7" height="0.7"/>
		<rect x="291.8" y="189" class="st0" width="0.7" height="0.7"/>
		<rect x="293.9" y="189" class="st0" width="0.7" height="0.7"/>
		<rect x="294.6" y="189" class="st0" width="0.7" height="0.7"/>
		<rect x="295.3" y="189" class="st0" width="0.7" height="0.7"/>
		<rect x="297.4" y="189" class="st0" width="0.7" height="0.7"/>
		<rect x="298.1" y="189" class="st0" width="0.7" height="0.7"/>
		<rect x="298.8" y="189" class="st0" width="0.7" height="0.7"/>
		<rect x="299.5" y="189" class="st0" width="0.7" height="0.7"/>
		<rect x="300.2" y="189" class="st0" width="0.7" height="0.7"/>
		<rect x="300.9" y="189" class="st0" width="0.7" height="0.7"/>
		<rect x="302.3" y="189" class="st0" width="0.7" height="0.7"/>
		<rect x="303" y="189" class="st0" width="0.7" height="0.7"/>
		<rect x="292.5" y="189.7" class="st0" width="0.7" height="0.7"/>
		<rect x="293.2" y="189.7" class="st0" width="0.7" height="0.7"/>
		<rect x="294.6" y="189.7" class="st0" width="0.7" height="0.7"/>
		<rect x="298.1" y="189.7" class="st0" width="0.7" height="0.7"/>
		<rect x="300.9" y="189.7" class="st0" width="0.7" height="0.7"/>
		<rect x="302.3" y="189.7" class="st0" width="0.7" height="0.7"/>
		<rect x="303" y="189.7" class="st0" width="0.7" height="0.7"/>
		<rect x="286.9" y="190.4" class="st0" width="0.7" height="0.7"/>
		<rect x="287.6" y="190.4" class="st0" width="0.7" height="0.7"/>
		<rect x="288.3" y="190.4" class="st0" width="0.7" height="0.7"/>
		<rect x="289" y="190.4" class="st0" width="0.7" height="0.7"/>
		<rect x="289.7" y="190.4" class="st0" width="0.7" height="0.7"/>
		<rect x="290.4" y="190.4" class="st0" width="0.7" height="0.7"/>
		<rect x="291.1" y="190.4" class="st0" width="0.7" height="0.7"/>
		<rect x="293.9" y="190.4" class="st0" width="0.7" height="0.7"/>
		<rect x="295.3" y="190.4" class="st0" width="0.7" height="0.7"/>
		<rect x="296.7" y="190.4" class="st0" width="0.7" height="0.7"/>
		<rect x="298.1" y="190.4" class="st0" width="0.7" height="0.7"/>
		<rect x="299.5" y="190.4" class="st0" width="0.7" height="0.7"/>
		<rect x="300.9" y="190.4" class="st0" width="0.7" height="0.7"/>
		<rect x="303.7" y="190.4" class="st0" width="0.7" height="0.7"/>
		<rect x="286.9" y="191.1" class="st0" width="0.7" height="0.7"/>
		<rect x="291.1" y="191.1" class="st0" width="0.7" height="0.7"/>
		<rect x="294.6" y="191.1" class="st0" width="0.7" height="0.7"/>
		<rect x="296" y="191.1" class="st0" width="0.7" height="0.7"/>
		<rect x="298.1" y="191.1" class="st0" width="0.7" height="0.7"/>
		<rect x="300.9" y="191.1" class="st0" width="0.7" height="0.7"/>
		<rect x="303.7" y="191.1" class="st0" width="0.7" height="0.7"/>
		<rect x="286.9" y="191.9" class="st0" width="0.7" height="0.7"/>
		<rect x="288.3" y="191.9" class="st0" width="0.7" height="0.7"/>
		<rect x="289" y="191.9" class="st0" width="0.7" height="0.7"/>
		<rect x="289.7" y="191.9" class="st0" width="0.7" height="0.7"/>
		<rect x="291.1" y="191.9" class="st0" width="0.7" height="0.7"/>
		<rect x="292.5" y="191.9" class="st0" width="0.7" height="0.7"/>
		<rect x="293.9" y="191.9" class="st0" width="0.7" height="0.7"/>
		<rect x="294.6" y="191.9" class="st0" width="0.7" height="0.7"/>
		<rect x="295.3" y="191.9" class="st0" width="0.7" height="0.7"/>
		<rect x="297.4" y="191.9" class="st0" width="0.7" height="0.7"/>
		<rect x="298.1" y="191.9" class="st0" width="0.7" height="0.7"/>
		<rect x="298.8" y="191.9" class="st0" width="0.7" height="0.7"/>
		<rect x="299.5" y="191.9" class="st0" width="0.7" height="0.7"/>
		<rect x="300.2" y="191.9" class="st0" width="0.7" height="0.7"/>
		<rect x="300.9" y="191.9" class="st0" width="0.7" height="0.7"/>
		<rect x="286.9" y="192.6" class="st0" width="0.7" height="0.7"/>
		<rect x="288.3" y="192.6" class="st0" width="0.7" height="0.7"/>
		<rect x="289" y="192.6" class="st0" width="0.7" height="0.7"/>
		<rect x="289.7" y="192.6" class="st0" width="0.7" height="0.7"/>
		<rect x="291.1" y="192.6" class="st0" width="0.7" height="0.7"/>
		<rect x="292.5" y="192.6" class="st0" width="0.7" height="0.7"/>
		<rect x="293.2" y="192.6" class="st0" width="0.7" height="0.7"/>
		<rect x="295.3" y="192.6" class="st0" width="0.7" height="0.7"/>
		<rect x="296" y="192.6" class="st0" width="0.7" height="0.7"/>
		<rect x="296.7" y="192.6" class="st0" width="0.7" height="0.7"/>
		<rect x="299.5" y="192.6" class="st0" width="0.7" height="0.7"/>
		<rect x="303.7" y="192.6" class="st0" width="0.7" height="0.7"/>
		<rect x="286.9" y="193.3" class="st0" width="0.7" height="0.7"/>
		<rect x="288.3" y="193.3" class="st0" width="0.7" height="0.7"/>
		<rect x="289" y="193.3" class="st0" width="0.7" height="0.7"/>
		<rect x="289.7" y="193.3" class="st0" width="0.7" height="0.7"/>
		<rect x="291.1" y="193.3" class="st0" width="0.7" height="0.7"/>
		<rect x="293.2" y="193.3" class="st0" width="0.7" height="0.7"/>
		<rect x="294.6" y="193.3" class="st0" width="0.7" height="0.7"/>
		<rect x="296" y="193.3" class="st0" width="0.7" height="0.7"/>
		<rect x="297.4" y="193.3" class="st0" width="0.7" height="0.7"/>
		<rect x="298.8" y="193.3" class="st0" width="0.7" height="0.7"/>
		<rect x="300.9" y="193.3" class="st0" width="0.7" height="0.7"/>
		<rect x="303.7" y="193.3" class="st0" width="0.7" height="0.7"/>
		<rect x="286.9" y="194" class="st0" width="0.7" height="0.7"/>
		<rect x="291.1" y="194" class="st0" width="0.7" height="0.7"/>
		<rect x="292.5" y="194" class="st0" width="0.7" height="0.7"/>
		<rect x="293.9" y="194" class="st0" width="0.7" height="0.7"/>
		<rect x="294.6" y="194" class="st0" width="0.7" height="0.7"/>
		<rect x="296.7" y="194" class="st0" width="0.7" height="0.7"/>
		<rect x="297.4" y="194" class="st0" width="0.7" height="0.7"/>
		<rect x="300.2" y="194" class="st0" width="0.7" height="0.7"/>
		<rect x="300.9" y="194" class="st0" width="0.7" height="0.7"/>
		<rect x="302.3" y="194" class="st0" width="0.7" height="0.7"/>
		<rect x="303.7" y="194" class="st0" width="0.7" height="0.7"/>
		<rect x="286.9" y="194.7" class="st0" width="0.7" height="0.7"/>
		<rect x="287.6" y="194.7" class="st0" width="0.7" height="0.7"/>
		<rect x="288.3" y="194.7" class="st0" width="0.7" height="0.7"/>
		<rect x="289" y="194.7" class="st0" width="0.7" height="0.7"/>
		<rect x="289.7" y="194.7" class="st0" width="0.7" height="0.7"/>
		<rect x="290.4" y="194.7" class="st0" width="0.7" height="0.7"/>
		<rect x="291.1" y="194.7" class="st0" width="0.7" height="0.7"/>
		<rect x="292.5" y="194.7" class="st0" width="0.7" height="0.7"/>
		<rect x="293.2" y="194.7" class="st0" width="0.7" height="0.7"/>
		<rect x="293.9" y="194.7" class="st0" width="0.7" height="0.7"/>
		<rect x="295.3" y="194.7" class="st0" width="0.7" height="0.7"/>
		<rect x="298.1" y="194.7" class="st0" width="0.7" height="0.7"/>
		<rect x="298.8" y="194.7" class="st0" width="0.7" height="0.7"/>
		<rect x="301.6" y="194.7" class="st0" width="0.7" height="0.7"/>
		<rect x="303.7" y="194.7" class="st0" width="0.7" height="0.7"/>
	</g>
</g>
<g>
	<rect x="285.6" y="129.4" class="st2" width="20.1" height="20.3"/>
	<g>
		<rect x="286.9" y="130.7" class="st0" width="0.7" height="0.7"/>
		<rect x="287.6" y="130.7" class="st0" width="0.7" height="0.7"/>
		<rect x="288.3" y="130.7" class="st0" width="0.7" height="0.7"/>
		<rect x="289" y="130.7" class="st0" width="0.7" height="0.7"/>
		<rect x="289.7" y="130.7" class="st0" width="0.7" height="0.7"/>
		<rect x="290.4" y="130.7" class="st0" width="0.7" height="0.7"/>
		<rect x="291.1" y="130.7" class="st0" width="0.7" height="0.7"/>
		<rect x="292.5" y="130.7" class="st0" width="0.7" height="0.7"/>
		<rect x="293.2" y="130.7" class="st0" width="0.7" height="0.7"/>
		<rect x="293.9" y="130.7" class="st0" width="0.7" height="0.7"/>
		<rect x="294.6" y="130.7" class="st0" width="0.7" height="0.7"/>
		<rect x="299.5" y="130.7" class="st0" width="0.7" height="0.7"/>
		<rect x="300.2" y="130.7" class="st0" width="0.7" height="0.7"/>
		<rect x="300.9" y="130.7" class="st0" width="0.7" height="0.7"/>
		<rect x="301.6" y="130.7" class="st0" width="0.7" height="0.7"/>
		<rect x="302.3" y="130.7" class="st0" width="0.7" height="0.7"/>
		<rect x="303" y="130.7" class="st0" width="0.7" height="0.7"/>
		<rect x="303.7" y="130.7" class="st0" width="0.7" height="0.7"/>
		<rect x="286.9" y="131.4" class="st0" width="0.7" height="0.7"/>
		<rect x="291.1" y="131.4" class="st0" width="0.7" height="0.7"/>
		<rect x="294.6" y="131.4" class="st0" width="0.7" height="0.7"/>
		<rect x="295.3" y="131.4" class="st0" width="0.7" height="0.7"/>
		<rect x="296" y="131.4" class="st0" width="0.7" height="0.7"/>
		<rect x="296.7" y="131.4" class="st0" width="0.7" height="0.7"/>
		<rect x="298.1" y="131.4" class="st0" width="0.7" height="0.7"/>
		<rect x="299.5" y="131.4" class="st0" width="0.7" height="0.7"/>
		<rect x="303.7" y="131.4" class="st0" width="0.7" height="0.7"/>
		<rect x="286.9" y="132.1" class="st0" width="0.7" height="0.7"/>
		<rect x="288.3" y="132.1" class="st0" width="0.7" height="0.7"/>
		<rect x="289" y="132.1" class="st0" width="0.7" height="0.7"/>
		<rect x="289.7" y="132.1" class="st0" width="0.7" height="0.7"/>
		<rect x="291.1" y="132.1" class="st0" width="0.7" height="0.7"/>
		<rect x="293.2" y="132.1" class="st0" width="0.7" height="0.7"/>
		<rect x="294.6" y="132.1" class="st0" width="0.7" height="0.7"/>
		<rect x="296" y="132.1" class="st0" width="0.7" height="0.7"/>
		<rect x="297.4" y="132.1" class="st0" width="0.7" height="0.7"/>
		<rect x="298.1" y="132.1" class="st0" width="0.7" height="0.7"/>
		<rect x="299.5" y="132.1" class="st0" width="0.7" height="0.7"/>
		<rect x="300.9" y="132.1" class="st0" width="0.7" height="0.7"/>
		<rect x="301.6" y="132.1" class="st0" width="0.7" height="0.7"/>
		<rect x="302.3" y="132.1" class="st0" width="0.7" height="0.7"/>
		<rect x="303.7" y="132.1" class="st0" width="0.7" height="0.7"/>
		<rect x="286.9" y="132.8" class="st0" width="0.7" height="0.7"/>
		<rect x="288.3" y="132.8" class="st0" width="0.7" height="0.7"/>
		<rect x="289" y="132.8" class="st0" width="0.7" height="0.7"/>
		<rect x="289.7" y="132.8" class="st0" width="0.7" height="0.7"/>
		<rect x="291.1" y="132.8" class="st0" width="0.7" height="0.7"/>
		<rect x="293.9" y="132.8" class="st0" width="0.7" height="0.7"/>
		<rect x="294.6" y="132.8" class="st0" width="0.7" height="0.7"/>
		<rect x="296" y="132.8" class="st0" width="0.7" height="0.7"/>
		<rect x="297.4" y="132.8" class="st0" width="0.7" height="0.7"/>
		<rect x="298.1" y="132.8" class="st0" width="0.7" height="0.7"/>
		<rect x="299.5" y="132.8" class="st0" width="0.7" height="0.7"/>
		<rect x="300.9" y="132.8" class="st0" width="0.7" height="0.7"/>
		<rect x="301.6" y="132.8" class="st0" width="0.7" height="0.7"/>
		<rect x="302.3" y="132.8" class="st0" width="0.7" height="0.7"/>
		<rect x="303.7" y="132.8" class="st0" width="0.7" height="0.7"/>
		<rect x="286.9" y="133.6" class="st0" width="0.7" height="0.7"/>
		<rect x="288.3" y="133.6" class="st0" width="0.7" height="0.7"/>
		<rect x="289" y="133.6" class="st0" width="0.7" height="0.7"/>
		<rect x="289.7" y="133.6" class="st0" width="0.7" height="0.7"/>
		<rect x="291.1" y="133.6" class="st0" width="0.7" height="0.7"/>
		<rect x="293.9" y="133.6" class="st0" width="0.7" height="0.7"/>
		<rect x="294.6" y="133.6" class="st0" width="0.7" height="0.7"/>
		<rect x="295.3" y="133.6" class="st0" width="0.7" height="0.7"/>
		<rect x="296.7" y="133.6" class="st0" width="0.7" height="0.7"/>
		<rect x="298.1" y="133.6" class="st0" width="0.7" height="0.7"/>
		<rect x="299.5" y="133.6" class="st0" width="0.7" height="0.7"/>
		<rect x="300.9" y="133.6" class="st0" width="0.7" height="0.7"/>
		<rect x="301.6" y="133.6" class="st0" width="0.7" height="0.7"/>
		<rect x="302.3" y="133.6" class="st0" width="0.7" height="0.7"/>
		<rect x="303.7" y="133.6" class="st0" width="0.7" height="0.7"/>
		<rect x="286.9" y="134.3" class="st0" width="0.7" height="0.7"/>
		<rect x="291.1" y="134.3" class="st0" width="0.7" height="0.7"/>
		<rect x="293.2" y="134.3" class="st0" width="0.7" height="0.7"/>
		<rect x="294.6" y="134.3" class="st0" width="0.7" height="0.7"/>
		<rect x="296.7" y="134.3" class="st0" width="0.7" height="0.7"/>
		<rect x="298.1" y="134.3" class="st0" width="0.7" height="0.7"/>
		<rect x="299.5" y="134.3" class="st0" width="0.7" height="0.7"/>
		<rect x="303.7" y="134.3" class="st0" width="0.7" height="0.7"/>
		<rect x="286.9" y="135" class="st0" width="0.7" height="0.7"/>
		<rect x="287.6" y="135" class="st0" width="0.7" height="0.7"/>
		<rect x="288.3" y="135" class="st0" width="0.7" height="0.7"/>
		<rect x="289" y="135" class="st0" width="0.7" height="0.7"/>
		<rect x="289.7" y="135" class="st0" width="0.7" height="0.7"/>
		<rect x="290.4" y="135" class="st0" width="0.7" height="0.7"/>
		<rect x="291.1" y="135" class="st0" width="0.7" height="0.7"/>
		<rect x="292.5" y="135" class="st0" width="0.7" height="0.7"/>
		<rect x="293.9" y="135" class="st0" width="0.7" height="0.7"/>
		<rect x="295.3" y="135" class="st0" width="0.7" height="0.7"/>
		<rect x="296.7" y="135" class="st0" width="0.7" height="0.7"/>
		<rect x="298.1" y="135" class="st0" width="0.7" height="0.7"/>
		<rect x="299.5" y="135" class="st0" width="0.7" height="0.7"/>
		<rect x="300.2" y="135" class="st0" width="0.7" height="0.7"/>
		<rect x="300.9" y="135" class="st0" width="0.7" height="0.7"/>
		<rect x="301.6" y="135" class="st0" width="0.7" height="0.7"/>
		<rect x="302.3" y="135" class="st0" width="0.7" height="0.7"/>
		<rect x="303" y="135" class="st0" width="0.7" height="0.7"/>
		<rect x="303.7" y="135" class="st0" width="0.7" height="0.7"/>
		<rect x="292.5" y="135.7" class="st0" width="0.7" height="0.7"/>
		<rect x="293.2" y="135.7" class="st0" width="0.7" height="0.7"/>
		<rect x="295.3" y="135.7" class="st0" width="0.7" height="0.7"/>
		<rect x="296" y="135.7" class="st0" width="0.7" height="0.7"/>
		<rect x="286.9" y="136.4" class="st0" width="0.7" height="0.7"/>
		<rect x="287.6" y="136.4" class="st0" width="0.7" height="0.7"/>
		<rect x="289" y="136.4" class="st0" width="0.7" height="0.7"/>
		<rect x="289.7" y="136.4" class="st0" width="0.7" height="0.7"/>
		<rect x="291.1" y="136.4" class="st0" width="0.7" height="0.7"/>
		<rect x="293.2" y="136.4" class="st0" width="0.7" height="0.7"/>
		<rect x="295.3" y="136.4" class="st0" width="0.7" height="0.7"/>
		<rect x="296.7" y="136.4" class="st0" width="0.7" height="0.7"/>
		<rect x="297.4" y="136.4" class="st0" width="0.7" height="0.7"/>
		<rect x="299.5" y="136.4" class="st0" width="0.7" height="0.7"/>
		<rect x="303.7" y="136.4" class="st0" width="0.7" height="0.7"/>
		<rect x="286.9" y="137.1" class="st0" width="0.7" height="0.7"/>
		<rect x="287.6" y="137.1" class="st0" width="0.7" height="0.7"/>
		<rect x="288.3" y="137.1" class="st0" width="0.7" height="0.7"/>
		<rect x="289.7" y="137.1" class="st0" width="0.7" height="0.7"/>
		<rect x="290.4" y="137.1" class="st0" width="0.7" height="0.7"/>
		<rect x="291.8" y="137.1" class="st0" width="0.7" height="0.7"/>
		<rect x="293.9" y="137.1" class="st0" width="0.7" height="0.7"/>
		<rect x="296" y="137.1" class="st0" width="0.7" height="0.7"/>
		<rect x="296.7" y="137.1" class="st0" width="0.7" height="0.7"/>
		<rect x="297.4" y="137.1" class="st0" width="0.7" height="0.7"/>
		<rect x="298.8" y="137.1" class="st0" width="0.7" height="0.7"/>
		<rect x="300.2" y="137.1" class="st0" width="0.7" height="0.7"/>
		<rect x="286.9" y="137.8" class="st0" width="0.7" height="0.7"/>
		<rect x="288.3" y="137.8" class="st0" width="0.7" height="0.7"/>
		<rect x="289.7" y="137.8" class="st0" width="0.7" height="0.7"/>
		<rect x="291.1" y="137.8" class="st0" width="0.7" height="0.7"/>
		<rect x="291.8" y="137.8" class="st0" width="0.7" height="0.7"/>
		<rect x="295.3" y="137.8" class="st0" width="0.7" height="0.7"/>
		<rect x="297.4" y="137.8" class="st0" width="0.7" height="0.7"/>
		<rect x="298.1" y="137.8" class="st0" width="0.7" height="0.7"/>
		<rect x="299.5" y="137.8" class="st0" width="0.7" height="0.7"/>
		<rect x="303.7" y="137.8" class="st0" width="0.7" height="0.7"/>
		<rect x="286.9" y="138.5" class="st0" width="0.7" height="0.7"/>
		<rect x="287.6" y="138.5" class="st0" width="0.7" height="0.7"/>
		<rect x="291.8" y="138.5" class="st0" width="0.7" height="0.7"/>
		<rect x="300.2" y="138.5" class="st0" width="0.7" height="0.7"/>
		<rect x="301.6" y="138.5" class="st0" width="0.7" height="0.7"/>
		<rect x="302.3" y="138.5" class="st0" width="0.7" height="0.7"/>
		<rect x="303.7" y="138.5" class="st0" width="0.7" height="0.7"/>
		<rect x="288.3" y="139.2" class="st0" width="0.7" height="0.7"/>
		<rect x="289" y="139.2" class="st0" width="0.7" height="0.7"/>
		<rect x="291.1" y="139.2" class="st0" width="0.7" height="0.7"/>
		<rect x="292.5" y="139.2" class="st0" width="0.7" height="0.7"/>
		<rect x="299.5" y="139.2" class="st0" width="0.7" height="0.7"/>
		<rect x="303.7" y="139.2" class="st0" width="0.7" height="0.7"/>
		<rect x="286.9" y="139.9" class="st0" width="0.7" height="0.7"/>
		<rect x="290.4" y="139.9" class="st0" width="0.7" height="0.7"/>
		<rect x="291.8" y="139.9" class="st0" width="0.7" height="0.7"/>
		<rect x="293.9" y="139.9" class="st0" width="0.7" height="0.7"/>
		<rect x="295.3" y="139.9" class="st0" width="0.7" height="0.7"/>
		<rect x="298.1" y="139.9" class="st0" width="0.7" height="0.7"/>
		<rect x="298.8" y="139.9" class="st0" width="0.7" height="0.7"/>
		<rect x="300.9" y="139.9" class="st0" width="0.7" height="0.7"/>
		<rect x="303" y="139.9" class="st0" width="0.7" height="0.7"/>
		<rect x="286.9" y="140.7" class="st0" width="0.7" height="0.7"/>
		<rect x="287.6" y="140.7" class="st0" width="0.7" height="0.7"/>
		<rect x="290.4" y="140.7" class="st0" width="0.7" height="0.7"/>
		<rect x="291.1" y="140.7" class="st0" width="0.7" height="0.7"/>
		<rect x="291.8" y="140.7" class="st0" width="0.7" height="0.7"/>
		<rect x="293.2" y="140.7" class="st0" width="0.7" height="0.7"/>
		<rect x="296.7" y="140.7" class="st0" width="0.7" height="0.7"/>
		<rect x="297.4" y="140.7" class="st0" width="0.7" height="0.7"/>
		<rect x="298.8" y="140.7" class="st0" width="0.7" height="0.7"/>
		<rect x="299.5" y="140.7" class="st0" width="0.7" height="0.7"/>
		<rect x="300.9" y="140.7" class="st0" width="0.7" height="0.7"/>
		<rect x="301.6" y="140.7" class="st0" width="0.7" height="0.7"/>
		<rect x="302.3" y="140.7" class="st0" width="0.7" height="0.7"/>
		<rect x="303" y="140.7" class="st0" width="0.7" height="0.7"/>
		<rect x="303.7" y="140.7" class="st0" width="0.7" height="0.7"/>
		<rect x="286.9" y="141.4" class="st0" width="0.7" height="0.7"/>
		<rect x="290.4" y="141.4" class="st0" width="0.7" height="0.7"/>
		<rect x="291.8" y="141.4" class="st0" width="0.7" height="0.7"/>
		<rect x="293.2" y="141.4" class="st0" width="0.7" height="0.7"/>
		<rect x="296.7" y="141.4" class="st0" width="0.7" height="0.7"/>
		<rect x="298.1" y="141.4" class="st0" width="0.7" height="0.7"/>
		<rect x="298.8" y="141.4" class="st0" width="0.7" height="0.7"/>
		<rect x="300.2" y="141.4" class="st0" width="0.7" height="0.7"/>
		<rect x="301.6" y="141.4" class="st0" width="0.7" height="0.7"/>
		<rect x="302.3" y="141.4" class="st0" width="0.7" height="0.7"/>
		<rect x="303.7" y="141.4" class="st0" width="0.7" height="0.7"/>
		<rect x="286.9" y="142.1" class="st0" width="0.7" height="0.7"/>
		<rect x="288.3" y="142.1" class="st0" width="0.7" height="0.7"/>
		<rect x="289" y="142.1" class="st0" width="0.7" height="0.7"/>
		<rect x="289.7" y="142.1" class="st0" width="0.7" height="0.7"/>
		<rect x="291.1" y="142.1" class="st0" width="0.7" height="0.7"/>
		<rect x="291.8" y="142.1" class="st0" width="0.7" height="0.7"/>
		<rect x="293.9" y="142.1" class="st0" width="0.7" height="0.7"/>
		<rect x="294.6" y="142.1" class="st0" width="0.7" height="0.7"/>
		<rect x="295.3" y="142.1" class="st0" width="0.7" height="0.7"/>
		<rect x="297.4" y="142.1" class="st0" width="0.7" height="0.7"/>
		<rect x="298.1" y="142.1" class="st0" width="0.7" height="0.7"/>
		<rect x="298.8" y="142.1" class="st0" width="0.7" height="0.7"/>
		<rect x="299.5" y="142.1" class="st0" width="0.7" height="0.7"/>
		<rect x="300.2" y="142.1" class="st0" width="0.7" height="0.7"/>
		<rect x="300.9" y="142.1" class="st0" width="0.7" height="0.7"/>
		<rect x="302.3" y="142.1" class="st0" width="0.7" height="0.7"/>
		<rect x="303" y="142.1" class="st0" width="0.7" height="0.7"/>
		<rect x="292.5" y="142.8" class="st0" width="0.7" height="0.7"/>
		<rect x="293.2" y="142.8" class="st0" width="0.7" height="0.7"/>
		<rect x="294.6" y="142.8" class="st0" width="0.7" height="0.7"/>
		<rect x="298.1" y="142.8" class="st0" width="0.7" height="0.7"/>
		<rect x="300.9" y="142.8" class="st0" width="0.7" height="0.7"/>
		<rect x="302.3" y="142.8" class="st0" width="0.7" height="0.7"/>
		<rect x="303" y="142.8" class="st0" width="0.7" height="0.7"/>
		<rect x="286.9" y="143.5" class="st0" width="0.7" height="0.7"/>
		<rect x="287.6" y="143.5" class="st0" width="0.7" height="0.7"/>
		<rect x="288.3" y="143.5" class="st0" width="0.7" height="0.7"/>
		<rect x="289" y="143.5" class="st0" width="0.7" height="0.7"/>
		<rect x="289.7" y="143.5" class="st0" width="0.7" height="0.7"/>
		<rect x="290.4" y="143.5" class="st0" width="0.7" height="0.7"/>
		<rect x="291.1" y="143.5" class="st0" width="0.7" height="0.7"/>
		<rect x="293.9" y="143.5" class="st0" width="0.7" height="0.7"/>
		<rect x="295.3" y="143.5" class="st0" width="0.7" height="0.7"/>
		<rect x="296.7" y="143.5" class="st0" width="0.7" height="0.7"/>
		<rect x="298.1" y="143.5" class="st0" width="0.7" height="0.7"/>
		<rect x="299.5" y="143.5" class="st0" width="0.7" height="0.7"/>
		<rect x="300.9" y="143.5" class="st0" width="0.7" height="0.7"/>
		<rect x="303.7" y="143.5" class="st0" width="0.7" height="0.7"/>
		<rect x="286.9" y="144.2" class="st0" width="0.7" height="0.7"/>
		<rect x="291.1" y="144.2" class="st0" width="0.7" height="0.7"/>
		<rect x="294.6" y="144.2" class="st0" width="0.7" height="0.7"/>
		<rect x="296" y="144.2" class="st0" width="0.7" height="0.7"/>
		<rect x="298.1" y="144.2" class="st0" width="0.7" height="0.7"/>
		<rect x="300.9" y="144.2" class="st0" width="0.7" height="0.7"/>
		<rect x="303.7" y="144.2" class="st0" width="0.7" height="0.7"/>
		<rect x="286.9" y="144.9" class="st0" width="0.7" height="0.7"/>
		<rect x="288.3" y="144.9" class="st0" width="0.7" height="0.7"/>
		<rect x="289" y="144.9" class="st0" width="0.7" height="0.7"/>
		<rect x="289.7" y="144.9" class="st0" width="0.7" height="0.7"/>
		<rect x="291.1" y="144.9" class="st0" width="0.7" height="0.7"/>
		<rect x="292.5" y="144.9" class="st0" width="0.7" height="0.7"/>
		<rect x="293.9" y="144.9" class="st0" width="0.7" height="0.7"/>
		<rect x="294.6" y="144.9" class="st0" width="0.7" height="0.7"/>
		<rect x="295.3" y="144.9" class="st0" width="0.7" height="0.7"/>
		<rect x="297.4" y="144.9" class="st0" width="0.7" height="0.7"/>
		<rect x="298.1" y="144.9" class="st0" width="0.7" height="0.7"/>
		<rect x="298.8" y="144.9" class="st0" width="0.7" height="0.7"/>
		<rect x="299.5" y="144.9" class="st0" width="0.7" height="0.7"/>
		<rect x="300.2" y="144.9" class="st0" width="0.7" height="0.7"/>
		<rect x="300.9" y="144.9" class="st0" width="0.7" height="0.7"/>
		<rect x="286.9" y="145.6" class="st0" width="0.7" height="0.7"/>
		<rect x="288.3" y="145.6" class="st0" width="0.7" height="0.7"/>
		<rect x="289" y="145.6" class="st0" width="0.7" height="0.7"/>
		<rect x="289.7" y="145.6" class="st0" width="0.7" height="0.7"/>
		<rect x="291.1" y="145.6" class="st0" width="0.7" height="0.7"/>
		<rect x="292.5" y="145.6" class="st0" width="0.7" height="0.7"/>
		<rect x="293.2" y="145.6" class="st0" width="0.7" height="0.7"/>
		<rect x="295.3" y="145.6" class="st0" width="0.7" height="0.7"/>
		<rect x="296" y="145.6" class="st0" width="0.7" height="0.7"/>
		<rect x="296.7" y="145.6" class="st0" width="0.7" height="0.7"/>
		<rect x="299.5" y="145.6" class="st0" width="0.7" height="0.7"/>
		<rect x="303.7" y="145.6" class="st0" width="0.7" height="0.7"/>
		<rect x="286.9" y="146.3" class="st0" width="0.7" height="0.7"/>
		<rect x="288.3" y="146.3" class="st0" width="0.7" height="0.7"/>
		<rect x="289" y="146.3" class="st0" width="0.7" height="0.7"/>
		<rect x="289.7" y="146.3" class="st0" width="0.7" height="0.7"/>
		<rect x="291.1" y="146.3" class="st0" width="0.7" height="0.7"/>
		<rect x="293.2" y="146.3" class="st0" width="0.7" height="0.7"/>
		<rect x="294.6" y="146.3" class="st0" width="0.7" height="0.7"/>
		<rect x="296" y="146.3" class="st0" width="0.7" height="0.7"/>
		<rect x="297.4" y="146.3" class="st0" width="0.7" height="0.7"/>
		<rect x="298.8" y="146.3" class="st0" width="0.7" height="0.7"/>
		<rect x="300.9" y="146.3" class="st0" width="0.7" height="0.7"/>
		<rect x="303.7" y="146.3" class="st0" width="0.7" height="0.7"/>
		<rect x="286.9" y="147" class="st0" width="0.7" height="0.7"/>
		<rect x="291.1" y="147" class="st0" width="0.7" height="0.7"/>
		<rect x="292.5" y="147" class="st0" width="0.7" height="0.7"/>
		<rect x="293.9" y="147" class="st0" width="0.7" height="0.7"/>
		<rect x="294.6" y="147" class="st0" width="0.7" height="0.7"/>
		<rect x="296.7" y="147" class="st0" width="0.7" height="0.7"/>
		<rect x="297.4" y="147" class="st0" width="0.7" height="0.7"/>
		<rect x="300.2" y="147" class="st0" width="0.7" height="0.7"/>
		<rect x="300.9" y="147" class="st0" width="0.7" height="0.7"/>
		<rect x="302.3" y="147" class="st0" width="0.7" height="0.7"/>
		<rect x="303.7" y="147" class="st0" width="0.7" height="0.7"/>
		<rect x="286.9" y="147.8" class="st0" width="0.7" height="0.7"/>
		<rect x="287.6" y="147.8" class="st0" width="0.7" height="0.7"/>
		<rect x="288.3" y="147.8" class="st0" width="0.7" height="0.7"/>
		<rect x="289" y="147.8" class="st0" width="0.7" height="0.7"/>
		<rect x="289.7" y="147.8" class="st0" width="0.7" height="0.7"/>
		<rect x="290.4" y="147.8" class="st0" width="0.7" height="0.7"/>
		<rect x="291.1" y="147.8" class="st0" width="0.7" height="0.7"/>
		<rect x="292.5" y="147.8" class="st0" width="0.7" height="0.7"/>
		<rect x="293.2" y="147.8" class="st0" width="0.7" height="0.7"/>
		<rect x="293.9" y="147.8" class="st0" width="0.7" height="0.7"/>
		<rect x="295.3" y="147.8" class="st0" width="0.7" height="0.7"/>
		<rect x="298.1" y="147.8" class="st0" width="0.7" height="0.7"/>
		<rect x="298.8" y="147.8" class="st0" width="0.7" height="0.7"/>
		<rect x="301.6" y="147.8" class="st0" width="0.7" height="0.7"/>
		<rect x="303.7" y="147.8" class="st0" width="0.7" height="0.7"/>
	</g>
</g>
</svg>
