<?xml version="1.0" encoding="utf-8"?>
<!-- Generator: Adobe Illustrator 23.0.3, SVG Export Plug-In . SVG Version: 6.00 Build 0)  -->
<svg version="1.1" id="Camada_1" xmlns="http://www.w3.org/2000/svg" xmlns:xlink="http://www.w3.org/1999/xlink" x="0px" y="0px"
	 viewBox="0 0 2000 2000" style="enable-background:new 0 0 2000 2000;" xml:space="preserve">
<style type="text/css">
	.st0{fill:#4C4E51;}
	.st1{fill:#FBBF09;}
	.st2{fill:#D31E25;}
	.st3{fill:#EA7324;}
</style>
<g id="g4160-5-5">
	<g id="g4166-3-3" transform="translate(859.1591,2859.468)">
		<path id="path4168-5-5" class="st0" d="M-419.04-2096.66l-74.05-86.52c-12.87-14.7-31.15-21.85-49.26-21.1
			c-0.94-0.04-1.9-0.07-2.85-0.07h-179.7c-34.23,0-61.98,27.75-61.98,61.98c0,34.23,27.75,61.98,61.98,61.98h156.64l55.94,65.35
			c22.54,25.76,61.69,28.37,87.45,5.83C-399.11-2031.74-396.5-2070.9-419.04-2096.66"/>
	</g>
	<g id="g4170-6-6" transform="translate(1738.3815,1654.9957)">
		<path id="path4172-2-2" class="st0" d="M-737.64-124.18c0,54.78-44.4,99.18-99.18,99.18C-891.6-25-936-69.4-936-124.18
			s44.4-99.18,99.18-99.18C-782.05-223.35-737.64-178.95-737.64-124.18"/>
	</g>
	<g id="g4174-9-9" transform="translate(2274.5273,1654.9957)">
		<path id="path4176-1-1" class="st0" d="M-931.92-124.18c0,54.78-44.4,99.18-99.18,99.18c-54.78,0-99.18-44.4-99.18-99.18
			s44.4-99.18,99.18-99.18C-976.33-223.35-931.92-178.95-931.92-124.18"/>
	</g>
	<g id="g4178-2-2" transform="translate(1338.1877,1876.1577)">
		<path id="path4180-7-7" class="st1" d="M-592.62-486.36l-140.66-357.05h568.03v357.05H-592.62z"/>
	</g>
	<g id="g4182-0-0" transform="translate(2059.3503,1876.1577)">
		<path id="path4184-9-9" class="st2" d="M-853.95-486.36v-476.06h486.88l-243.44,476.06H-853.95z"/>
	</g>
	<g id="g4186-3-3" transform="translate(1997.8284,2501.8667)">
		<path id="path4188-6-6" class="st2" d="M-831.66-1511.04v-362.46l-688.38,58.43l120.34,304.03H-831.66z"/>
	</g>
	<g id="g4190-0-0" transform="translate(2050.8611,2698.2651)">
		<path id="path4192-6-6" class="st3" d="M-850.87-1832.67v-303.5l638.36-54.1l-151.48,357.6H-850.87z"/>
	</g>
</g>
</svg>
