<?xml version="1.0" encoding="utf-8"?>
<!-- Generator: Adobe Illustrator 23.0.3, SVG Export Plug-In . SVG Version: 6.00 Build 0)  -->
<svg version="1.1" id="Camada_1" xmlns="http://www.w3.org/2000/svg" xmlns:xlink="http://www.w3.org/1999/xlink" x="0px" y="0px"
	 viewBox="0 0 2000 2000" style="enable-background:new 0 0 2000 2000;" xml:space="preserve">
<style type="text/css">
	.st0{fill:#4C4E51;}
	.st1{fill:#770DDB;}
	.st2{fill:#C845AA;}
</style>
<g id="g4160-5-5">
	<g id="g4166-3-3" transform="translate(859.1591,2859.468)">
		<path id="path4168-5-5" class="st0" d="M-419-2096.7l-74.1-86.5c-12.9-14.7-31.2-21.9-49.3-21.1c-0.9,0-1.9-0.1-2.8-0.1h-179.7
			c-34.2,0-62,27.8-62,62s27.8,62,62,62h156.6l55.9,65.3c22.5,25.8,61.7,28.4,87.5,5.8C-399.1-2031.7-396.5-2070.9-419-2096.7"/>
	</g>
	<g id="g4170-6-6" transform="translate(1738.3815,1654.9957)">
		<path id="path4172-2-2" class="st0" d="M-737.6-124.2c0,54.8-44.4,99.2-99.2,99.2S-936-69.4-936-124.2s44.4-99.2,99.2-99.2
			C-782-223.4-737.6-178.9-737.6-124.2"/>
	</g>
	<g id="g4174-9-9" transform="translate(2274.5273,1654.9957)">
		<path id="path4176-1-1" class="st0" d="M-931.9-124.2c0,54.8-44.4,99.2-99.2,99.2c-54.8,0-99.2-44.4-99.2-99.2
			s44.4-99.2,99.2-99.2C-976.3-223.4-931.9-178.9-931.9-124.2"/>
	</g>
	<g id="g4178-2-2" transform="translate(1338.1877,1876.1577)">
		<path id="path4180-7-7" class="st1" d="M-592.6-486.4l-140.7-357h568v357H-592.6z"/>
	</g>
	<g id="g4182-0-0" transform="translate(2059.3503,1876.1577)">
		<path id="path4184-9-9" class="st2" d="M-854-486.4v-476.1h486.9l-243.4,476.1H-854z"/>
	</g>
	<g id="g4186-3-3" transform="translate(1997.8284,2501.8667)">
		<path id="path4188-6-6" class="st2" d="M-831.7-1511v-362.5l-688.4,58.4l120.3,304L-831.7-1511L-831.7-1511z"/>
	</g>
	<g id="g4190-0-0" transform="translate(2050.8611,2698.2651)">
		<path id="path4192-6-6" class="st1" d="M-850.9-1832.7v-303.5l638.4-54.1L-364-1832.7H-850.9z"/>
	</g>
</g>
</svg>
